<svg width="235" height="361" viewBox="0 0 235 361" fill="none" xmlns="http://www.w3.org/2000/svg">
<ellipse cx="122.5" cy="161.284" rx="65.5" ry="75.5" fill="#F5B5DC"/>
<ellipse cx="75.5" cy="211.784" rx="65.5" ry="73" fill="#F5B5DC"/>
<ellipse cx="178.5" cy="193.284" rx="49.5" ry="57.5" fill="#F5B5DC"/>
<ellipse cx="156.437" cy="236.523" rx="44.6518" ry="57.5" transform="rotate(116.722 156.437 236.523)" fill="#F5B5DC"/>
<ellipse cx="85.4372" cy="149.523" rx="39.7822" ry="51.2292" transform="rotate(137.332 85.4372 149.523)" fill="#F5B5DC"/>
<path d="M108.5 217.784C108.5 217.784 109.5 212.784 118 212.784C126.5 212.784 126.5 217.784 126.5 217.784L141 348.784C141 348.784 141 360.284 118 360.284C95 360.284 95 348.784 95 348.784L108.5 217.784Z" fill="#5A3310"/>
<path d="M118.973 244.473C117.266 245.206 115.95 246.58 115.335 248.333C114.718 250.083 114.852 252.068 115.688 253.811C116.524 255.555 117.988 256.902 119.739 257.517C121.491 258.134 123.386 257.968 125.027 257.096C125.027 257.096 125.027 257.096 125.027 257.096C126.855 256.135 128.605 255.091 130.288 254.01C159.592 234.21 179.123 203.709 186.777 170.847C187.201 169.016 187.581 167.208 187.935 165.349C188.053 164.723 187.912 164.064 187.558 163.52C187.202 162.975 186.663 162.591 186.042 162.447C185.422 162.303 184.768 162.411 184.209 162.743C183.651 163.076 183.234 163.605 183.065 164.219C183.065 164.219 183.065 164.219 183.065 164.219C182.579 165.979 182.07 167.685 181.521 169.406C171.756 200.201 150.345 227.271 123.389 242.347C121.907 243.137 120.405 243.869 118.973 244.473Z" fill="#5A3310"/>
<path d="M161.722 211.863C162.396 212.85 162.632 214.045 162.345 215.204C162.059 216.362 161.273 217.389 160.194 218.041C159.115 218.692 157.839 218.908 156.681 218.621C155.522 218.335 154.575 217.57 154.016 216.513C154.016 216.513 154.016 216.513 154.016 216.513C153.533 215.619 153.108 214.719 152.724 213.829C146.314 197.996 146.702 180.713 152.478 165.7C152.801 164.865 153.135 164.051 153.493 163.225C153.655 162.855 153.967 162.558 154.348 162.396C154.73 162.234 155.151 162.219 155.529 162.359C155.907 162.5 156.216 162.785 156.4 163.157C156.583 163.529 156.626 163.958 156.507 164.344C156.254 165.163 156.026 165.966 155.809 166.785C151.906 181.42 153.723 197.49 160.54 209.983C160.921 210.649 161.323 211.296 161.722 211.863Z" fill="#5A3310"/>
<path d="M144 233.185C142.807 233.134 141.662 233.563 140.818 234.408C139.974 235.251 139.5 236.44 139.5 237.685C139.5 238.93 139.974 240.12 140.818 240.963C141.662 241.807 142.807 242.236 144 242.185C144 242.185 144 242.185 144 242.185C144.995 242.138 146.139 242.132 147.308 242.108C169.948 243.239 189.355 226.165 197.901 207.652C198.415 206.639 198.923 205.597 199.426 204.526C199.599 204.155 199.616 203.722 199.482 203.327C199.347 202.932 199.073 202.606 198.711 202.418C198.348 202.229 197.924 202.192 197.523 202.309C197.123 202.426 196.778 202.689 196.574 203.043C196.574 203.043 196.574 203.043 196.574 203.043C196.001 204.04 195.425 205.004 194.846 205.936C184.664 223.306 166.976 235.979 147.493 233.399C146.38 233.329 145.28 233.237 144 233.185Z" fill="#5A3310"/>
<path d="M113.027 258.473C114.734 259.206 116.05 260.58 116.665 262.333C117.282 264.083 117.148 266.068 116.312 267.812C115.476 269.555 114.011 270.902 112.261 271.517C110.509 272.134 108.614 271.968 106.973 271.096C106.973 271.096 106.973 271.096 106.973 271.096C105.145 270.135 103.395 269.092 101.712 268.01C72.4076 248.21 52.8773 217.709 45.2234 184.847C44.7992 183.016 44.419 181.208 44.0647 179.35C43.9465 178.724 44.0876 178.064 44.4422 177.52C44.7976 176.975 45.3374 176.591 45.9576 176.447C46.5778 176.303 47.2319 176.411 47.7907 176.743C48.3487 177.076 48.7657 177.605 48.9353 178.22C48.9353 178.22 48.9353 178.22 48.9353 178.22C49.4207 179.979 49.9298 181.685 50.4793 183.406C60.244 214.201 81.6552 241.271 108.611 256.347C110.093 257.137 111.595 257.869 113.027 258.473Z" fill="#5A3310"/>
<path d="M58.5119 209.863C57.8376 210.85 57.6017 212.045 57.8892 213.204C58.1748 214.362 58.9603 215.39 60.0398 216.041C61.1192 216.692 62.3947 216.908 63.5523 216.621C64.7118 216.335 65.6586 215.57 66.2176 214.513C66.2176 214.513 66.2176 214.513 66.2176 214.513C66.7004 213.619 67.1254 212.719 67.5099 211.829C73.9194 195.996 73.5315 178.713 67.7558 163.7C67.4329 162.865 67.0984 162.051 66.7404 161.225C66.5788 160.855 66.2668 160.559 65.8854 160.396C65.5033 160.234 65.083 160.219 64.7047 160.359C64.3264 160.5 64.0176 160.785 63.8339 161.158C63.6509 161.53 63.6081 161.958 63.7271 162.344C63.9795 163.163 64.2081 163.966 64.4246 164.785C68.3279 179.42 66.5109 195.49 59.694 207.984C59.3132 208.649 58.9107 209.296 58.5119 209.863Z" fill="#5A3310"/>
<path d="M87.9999 247.185C89.1934 247.134 90.338 247.563 91.1819 248.408C92.0258 249.251 92.4999 250.44 92.4999 251.685C92.4999 252.93 92.0258 254.12 91.1819 254.963C90.338 255.807 89.1934 256.237 87.9999 256.185C87.9999 256.185 87.9999 256.185 87.9999 256.185C87.0049 256.138 85.8612 256.132 84.6924 256.108C62.0524 257.24 42.645 240.165 34.099 221.652C33.5852 220.639 33.0768 219.597 32.5741 218.526C32.4012 218.155 32.3843 217.723 32.5182 217.327C32.6525 216.932 32.9267 216.606 33.2893 216.418C33.6519 216.229 34.0758 216.192 34.4767 216.309C34.8771 216.426 35.2218 216.689 35.4258 217.043C35.4258 217.043 35.4258 217.043 35.4258 217.043C35.9985 218.04 36.5746 219.004 37.1535 219.936C47.336 237.307 65.0235 249.979 84.5073 247.399C85.6199 247.329 86.7202 247.237 87.9999 247.185Z" fill="#5A3310"/>
<g filter="url(#filter0_d_4_183)">
<ellipse cx="80.7114" cy="170.476" rx="57.2845" ry="56.9392" transform="rotate(137.332 80.7114 170.476)" fill="#F5B5DC"/>
</g>
<g filter="url(#filter1_d_4_183)">
<ellipse cx="154.711" cy="170.476" rx="57.2845" ry="56.9392" transform="rotate(137.332 154.711 170.476)" fill="#F5B5DC"/>
</g>
<g filter="url(#filter2_d_4_183)">
<ellipse cx="109.609" cy="146.378" rx="42.3068" ry="42.0519" transform="rotate(137.332 109.609 146.378)" fill="#F5B5DC"/>
</g>
<defs>
<filter id="filter0_d_4_183" x="19.5849" y="113.378" width="122.253" height="127.197" filterUnits="userSpaceOnUse" color-interpolation-filters="sRGB">
<feFlood flood-opacity="0" result="BackgroundImageFix"/>
<feColorMatrix in="SourceAlpha" type="matrix" values="0 0 0 0 0 0 0 0 0 0 0 0 0 0 0 0 0 0 127 0" result="hardAlpha"/>
<feOffset dy="9"/>
<feGaussianBlur stdDeviation="2"/>
<feComposite in2="hardAlpha" operator="out"/>
<feColorMatrix type="matrix" values="0 0 0 0 0.965385 0 0 0 0 0.396365 0 0 0 0 0.718809 0 0 0 0.25 0"/>
<feBlend mode="normal" in2="BackgroundImageFix" result="effect1_dropShadow_4_183"/>
<feBlend mode="normal" in="SourceGraphic" in2="effect1_dropShadow_4_183" result="shape"/>
</filter>
<filter id="filter1_d_4_183" x="93.5849" y="113.378" width="122.253" height="127.197" filterUnits="userSpaceOnUse" color-interpolation-filters="sRGB">
<feFlood flood-opacity="0" result="BackgroundImageFix"/>
<feColorMatrix in="SourceAlpha" type="matrix" values="0 0 0 0 0 0 0 0 0 0 0 0 0 0 0 0 0 0 127 0" result="hardAlpha"/>
<feOffset dy="9"/>
<feGaussianBlur stdDeviation="2"/>
<feComposite in2="hardAlpha" operator="out"/>
<feColorMatrix type="matrix" values="0 0 0 0 0.965385 0 0 0 0 0.396365 0 0 0 0 0.718809 0 0 0 0.25 0"/>
<feBlend mode="normal" in2="BackgroundImageFix" result="effect1_dropShadow_4_183"/>
<feBlend mode="normal" in="SourceGraphic" in2="effect1_dropShadow_4_183" result="shape"/>
</filter>
<filter id="filter2_d_4_183" x="63.4184" y="104.209" width="92.3803" height="97.3387" filterUnits="userSpaceOnUse" color-interpolation-filters="sRGB">
<feFlood flood-opacity="0" result="BackgroundImageFix"/>
<feColorMatrix in="SourceAlpha" type="matrix" values="0 0 0 0 0 0 0 0 0 0 0 0 0 0 0 0 0 0 127 0" result="hardAlpha"/>
<feOffset dy="9"/>
<feGaussianBlur stdDeviation="2"/>
<feComposite in2="hardAlpha" operator="out"/>
<feColorMatrix type="matrix" values="0 0 0 0 0.965385 0 0 0 0 0.396365 0 0 0 0 0.718809 0 0 0 0.25 0"/>
<feBlend mode="normal" in2="BackgroundImageFix" result="effect1_dropShadow_4_183"/>
<feBlend mode="normal" in="SourceGraphic" in2="effect1_dropShadow_4_183" result="shape"/>
</filter>
</defs>
</svg>
