<svg width="235" height="361" viewBox="0 0 235 361" fill="none" xmlns="http://www.w3.org/2000/svg">
<path d="M89.6697 309.207C89.2295 305.757 89.7447 302.126 92.6782 300.258C96.4087 297.882 103.759 295.239 118 295.239C132.241 295.239 139.591 297.882 143.322 300.258C146.255 302.126 146.771 305.757 146.33 309.207L140.73 353.105C140.73 353.105 140.73 360.239 118 360.239C95.2703 360.239 95.2703 353.105 95.2703 353.105L89.6697 309.207Z" fill="#7D664F"/>
<ellipse cx="118.5" cy="305.239" rx="25.5" ry="8" fill="#33281E"/>
<path fill-rule="evenodd" clip-rule="evenodd" d="M117.291 197.892C122.149 197.892 122.148 200.751 122.148 200.751L129.535 301.732C129.687 303.81 128.219 305.667 126.145 305.872C123.732 306.11 121.164 306.239 118.5 306.239C115.228 306.239 112.099 306.044 109.225 305.691C107.218 305.444 105.813 303.643 105.931 301.625L111.861 200.751C111.861 200.751 112.433 197.892 117.291 197.892Z" fill="#5A3310"/>
<path d="M117.135 259.738C115.403 260.419 114.066 261.748 113.451 263.501C112.834 265.251 112.99 267.281 113.851 269.077C114.712 270.872 116.198 272.265 117.948 272.879C119.7 273.497 121.574 273.286 123.189 272.361C123.189 272.361 123.189 272.361 123.189 272.361C124.319 271.736 125.373 271.072 126.377 270.392C143.628 258.063 154.387 239.897 158.31 220.673C158.525 219.603 158.715 218.547 158.889 217.464C158.985 216.852 158.824 216.207 158.467 215.676C158.108 215.145 157.582 214.771 156.98 214.632C156.378 214.492 155.741 214.596 155.185 214.915C154.63 215.234 154.202 215.743 154.019 216.334C154.019 216.334 154.019 216.334 154.019 216.334C153.713 217.319 153.395 218.271 153.054 219.231C147.021 236.389 134.381 251.124 119.478 258.729C118.674 259.118 117.869 259.47 117.135 259.738Z" fill="#5A3310"/>
<path d="M116.331 267.739C118.063 268.421 119.401 269.749 120.016 271.503C120.633 273.252 120.477 275.283 119.616 277.078C118.755 278.873 117.269 280.266 115.519 280.88C113.766 281.498 111.893 281.287 110.277 280.363C110.277 280.363 110.277 280.363 110.277 280.363C109.147 279.737 108.094 279.074 107.089 278.393C89.8382 266.065 79.0792 247.898 75.157 228.674C74.9415 227.604 74.7518 226.549 74.5773 225.465C74.4814 224.854 74.6424 224.209 74.9998 223.678C75.3585 223.146 75.8844 222.773 76.4866 222.633C77.0889 222.493 77.7256 222.597 78.2817 222.916C78.8363 223.236 79.2649 223.744 79.448 224.335C79.448 224.335 79.448 224.335 79.448 224.335C79.7535 225.32 80.072 226.273 80.413 227.233C86.4459 244.39 99.0858 259.126 113.988 266.731C114.792 267.119 115.598 267.471 116.331 267.739Z" fill="#5A3310"/>
</svg>
