<svg width="235" height="361" viewBox="0 0 235 361" fill="none" xmlns="http://www.w3.org/2000/svg">
<ellipse cx="116.5" cy="246.392" rx="54.5" ry="62.5" fill="#33803C"/>
<ellipse cx="86.5" cy="276.892" rx="37.5" ry="41" fill="#33803C"/>
<ellipse cx="149.5" cy="276.892" rx="37.5" ry="41" fill="#33803C"/>
<path d="M110.861 232.404C110.861 232.404 111.433 229.546 116.291 229.546C121.149 229.546 121.149 232.404 121.149 232.404L130.021 353.712C130.021 353.712 130.021 360.284 116.876 360.284C103.731 360.284 103.731 353.712 103.731 353.712L110.861 232.404Z" fill="#5A3310"/>
<path d="M116.135 291.391C114.403 292.073 113.066 293.401 112.451 295.155C111.834 296.904 111.99 298.935 112.851 300.73C113.712 302.525 115.198 303.918 116.948 304.532C118.7 305.15 120.574 304.939 122.189 304.015C122.189 304.015 122.189 304.015 122.189 304.015C123.319 303.389 124.373 302.726 125.377 302.045C142.628 289.717 153.387 271.55 157.31 252.326C157.525 251.256 157.715 250.201 157.889 249.117C157.985 248.506 157.824 247.861 157.467 247.33C157.108 246.798 156.582 246.425 155.98 246.285C155.378 246.145 154.741 246.249 154.185 246.568C153.63 246.888 153.202 247.396 153.019 247.987C153.019 247.987 153.019 247.987 153.019 247.987C152.713 248.972 152.395 249.925 152.054 250.885C146.021 268.042 133.381 282.778 118.478 290.382C117.674 290.771 116.869 291.123 116.135 291.391Z" fill="#5A3310"/>
<path d="M115.331 299.393C117.063 300.074 118.401 301.403 119.016 303.156C119.633 304.905 119.477 306.936 118.616 308.731C117.755 310.527 116.269 311.919 114.519 312.533C112.766 313.151 110.893 312.94 109.277 312.016C109.277 312.016 109.277 312.016 109.277 312.016C108.147 311.39 107.094 310.727 106.09 310.046C88.8382 297.718 78.0793 279.551 74.1571 260.327C73.9416 259.257 73.7519 258.202 73.5774 257.119C73.4815 256.507 73.6425 255.862 73.9998 255.331C74.3586 254.8 74.8844 254.426 75.4867 254.286C76.089 254.146 76.7256 254.25 77.2817 254.57C77.8364 254.889 78.2649 255.397 78.448 255.989C78.448 255.989 78.448 255.989 78.448 255.989C78.7536 256.973 79.0721 257.926 79.4131 258.886C85.446 276.043 98.0859 290.779 112.988 298.384C113.792 298.773 114.598 299.124 115.331 299.393Z" fill="#5A3310"/>
<path d="M120.115 218.521C120.115 221.078 118.287 225.562 116.031 225.562C113.775 225.562 111.947 221.078 111.947 218.521C111.947 215.965 113.775 213.892 116.031 213.892C118.287 213.892 120.115 215.965 120.115 218.521Z" fill="#F5B5DC"/>
<path d="M125.707 225.324C123.884 227.035 119.21 228.648 117.387 226.938C115.564 225.227 117.283 220.84 119.106 219.129C120.929 217.418 123.884 217.418 125.707 219.129C127.53 220.84 127.53 223.614 125.707 225.324Z" fill="#F5B5DC"/>
<path d="M115.729 231.351C115.062 228.861 116.25 223.863 119.158 223.083C122.067 222.304 125.595 226.039 126.263 228.529C126.93 231.019 125.113 233.67 122.204 234.449C119.295 235.228 116.396 233.842 115.729 231.351Z" fill="#F5B5DC"/>
<path d="M117.27 231.351C117.937 228.861 116.749 223.863 113.841 223.083C110.932 222.304 107.404 226.039 106.736 228.529C106.069 231.019 107.886 233.67 110.795 234.449C113.704 235.228 116.603 233.842 117.27 231.351Z" fill="#F5B5DC"/>
<path d="M106.301 225.324C108.124 227.035 112.798 228.648 114.621 226.938C116.444 225.227 114.725 220.84 112.902 219.129C111.079 217.418 108.124 217.418 106.301 219.129C104.478 220.84 104.478 223.614 106.301 225.324Z" fill="#F5B5DC"/>
<path d="M160.115 263.521C160.115 266.078 158.287 270.562 156.031 270.562C153.775 270.562 151.947 266.078 151.947 263.521C151.947 260.965 153.775 258.892 156.031 258.892C158.287 258.892 160.115 260.965 160.115 263.521Z" fill="#F5B5DC"/>
<path d="M165.707 270.324C163.884 272.035 159.21 273.648 157.387 271.938C155.564 270.227 157.283 265.84 159.106 264.129C160.929 262.418 163.884 262.418 165.707 264.129C167.53 265.84 167.53 268.614 165.707 270.324Z" fill="#F5B5DC"/>
<path d="M155.729 276.351C155.062 273.861 156.25 268.863 159.158 268.083C162.067 267.304 165.595 271.039 166.263 273.529C166.93 276.019 165.113 278.67 162.204 279.449C159.295 280.228 156.396 278.842 155.729 276.351Z" fill="#F5B5DC"/>
<path d="M157.27 276.351C157.937 273.861 156.749 268.863 153.841 268.083C150.932 267.304 147.404 271.039 146.736 273.529C146.069 276.019 147.886 278.67 150.795 279.449C153.704 280.228 156.603 278.842 157.27 276.351Z" fill="#F5B5DC"/>
<path d="M146.301 270.324C148.124 272.035 152.798 273.648 154.621 271.938C156.444 270.227 154.725 265.84 152.902 264.129C151.079 262.418 148.124 262.418 146.301 264.129C144.478 265.84 144.478 268.614 146.301 270.324Z" fill="#F5B5DC"/>
<path d="M81.1153 257.521C81.1153 260.078 79.2867 264.562 77.0309 264.562C74.7752 264.562 72.9466 260.078 72.9466 257.521C72.9466 254.965 74.7752 252.892 77.0309 252.892C79.2867 252.892 81.1153 254.965 81.1153 257.521Z" fill="#F5B5DC"/>
<path d="M86.7071 264.324C84.8842 266.035 80.2096 267.648 78.3867 265.938C76.5638 264.227 78.2829 259.84 80.1058 258.129C81.9287 256.418 84.8842 256.418 86.7071 258.129C88.53 259.84 88.53 262.614 86.7071 264.324Z" fill="#F5B5DC"/>
<path d="M76.7289 270.351C76.0617 267.861 77.2496 262.863 80.1584 262.083C83.0672 261.304 86.5954 265.039 87.2626 267.529C87.9299 270.019 86.1127 272.67 83.2039 273.449C80.2951 274.228 77.3962 272.842 76.7289 270.351Z" fill="#F5B5DC"/>
<path d="M78.2701 270.351C78.9374 267.861 77.7494 262.863 74.8406 262.083C71.9318 261.304 68.4037 265.039 67.7364 267.529C67.0692 270.019 68.8864 272.67 71.7952 273.449C74.704 274.228 77.6029 272.842 78.2701 270.351Z" fill="#F5B5DC"/>
<path d="M67.3007 264.324C69.1236 266.035 73.7982 267.648 75.6211 265.938C77.444 264.227 75.7249 259.84 73.902 258.129C72.0791 256.418 69.1236 256.418 67.3007 258.129C65.4778 259.84 65.4778 262.614 67.3007 264.324Z" fill="#F5B5DC"/>
</svg>
