<svg width="235" height="360" viewBox="0 0 235 360" fill="none" xmlns="http://www.w3.org/2000/svg">
<path d="M89.6697 308.86C89.2295 305.41 89.7447 301.78 92.6782 299.911C96.4087 297.536 103.759 294.892 118 294.892C132.241 294.892 139.591 297.536 143.322 299.911C146.255 301.78 146.771 305.41 146.33 308.86L140.73 352.758C140.73 352.758 140.73 359.892 118 359.892C95.2703 359.892 95.2703 352.758 95.2703 352.758L89.6697 308.86Z" fill="#7D664F"/>
<ellipse cx="118.5" cy="304.892" rx="25.5" ry="8" fill="#33281E"/>
<ellipse cx="86.5" cy="247.892" rx="37.5" ry="41" fill="#EF8D2A"/>
<ellipse cx="116.5" cy="217.392" rx="54.5" ry="62.5" fill="#EF8D2A"/>
<ellipse cx="149.5" cy="247.892" rx="37.5" ry="41" fill="#EF8D2A"/>
<path fill-rule="evenodd" clip-rule="evenodd" d="M116.291 200.892C121.149 200.892 121.148 203.75 121.148 203.75L128.534 304.731C128.686 306.809 127.218 308.666 125.145 308.871C122.731 309.109 120.163 309.238 117.5 309.238C114.228 309.238 111.1 309.043 108.226 308.69C106.219 308.443 104.814 306.642 104.932 304.624L110.861 203.75C110.861 203.75 111.433 200.892 116.291 200.892Z" fill="#5A3310"/>
<path d="M116.136 262.737C114.403 263.418 113.066 264.747 112.451 266.5C111.834 268.25 111.99 270.28 112.851 272.076C113.712 273.871 115.198 275.264 116.948 275.878C118.701 276.496 120.574 276.285 122.19 275.36C122.19 275.36 122.19 275.36 122.19 275.36C123.32 274.735 124.373 274.071 125.377 273.391C142.629 261.062 153.388 242.896 157.31 223.672C157.525 222.602 157.715 221.546 157.889 220.463C157.985 219.851 157.824 219.206 157.467 218.675C157.108 218.144 156.582 217.77 155.98 217.631C155.378 217.491 154.741 217.595 154.185 217.914C153.631 218.233 153.202 218.742 153.019 219.333C153.019 219.333 153.019 219.333 153.019 219.333C152.713 220.318 152.395 221.27 152.054 222.231C146.021 239.388 133.381 254.123 118.479 261.728C117.674 262.117 116.869 262.469 116.136 262.737Z" fill="#5A3310"/>
<path d="M115.331 270.738C117.064 271.42 118.401 272.748 119.016 274.502C119.633 276.251 119.477 278.282 118.616 280.077C117.755 281.872 116.269 283.265 114.519 283.879C112.766 284.497 110.893 284.286 109.277 283.362C109.277 283.362 109.277 283.362 109.277 283.362C108.147 282.736 107.094 282.073 106.09 281.392C88.8383 269.064 78.0793 250.897 74.1571 231.673C73.9416 230.603 73.7519 229.548 73.5775 228.464C73.4816 227.853 73.6425 227.208 73.9999 226.677C74.3587 226.145 74.8845 225.772 75.4868 225.632C76.089 225.492 76.7257 225.596 77.2818 225.915C77.8364 226.235 78.265 226.743 78.4481 227.334C78.4481 227.334 78.4481 227.334 78.4481 227.334C78.7536 228.319 79.0721 229.272 79.4131 230.232C85.4461 247.389 98.0859 262.125 112.988 269.73C113.793 270.118 114.598 270.47 115.331 270.738Z" fill="#5A3310"/>
</svg>
