<svg width="235" height="361" viewBox="0 0 235 361" fill="none" xmlns="http://www.w3.org/2000/svg">
<ellipse cx="117.5" cy="246.392" rx="54.5" ry="62.5" fill="#33803C"/>
<ellipse cx="87.5" cy="276.892" rx="37.5" ry="41" fill="#33803C"/>
<ellipse cx="150.5" cy="276.892" rx="37.5" ry="41" fill="#33803C"/>
<path d="M111.861 232.404C111.861 232.404 112.433 229.546 117.291 229.546C122.149 229.546 122.149 232.404 122.149 232.404L131.021 353.712C131.021 353.712 131.021 360.284 117.876 360.284C104.731 360.284 104.731 353.712 104.731 353.712L111.861 232.404Z" fill="#5A3310"/>
<path d="M117.135 291.391C115.403 292.073 114.066 293.401 113.451 295.155C112.834 296.904 112.99 298.935 113.851 300.73C114.712 302.525 116.198 303.918 117.948 304.532C119.7 305.15 121.574 304.939 123.189 304.015C123.189 304.015 123.189 304.015 123.189 304.015C124.319 303.389 125.373 302.726 126.377 302.045C143.628 289.717 154.387 271.55 158.31 252.326C158.525 251.256 158.715 250.201 158.889 249.117C158.985 248.506 158.824 247.861 158.467 247.33C158.108 246.798 157.582 246.425 156.98 246.285C156.378 246.145 155.741 246.249 155.185 246.568C154.63 246.888 154.202 247.396 154.019 247.987C154.019 247.987 154.019 247.987 154.019 247.987C153.713 248.972 153.395 249.925 153.054 250.885C147.021 268.042 134.381 282.778 119.478 290.382C118.674 290.771 117.869 291.123 117.135 291.391Z" fill="#5A3310"/>
<path d="M116.331 299.393C118.063 300.074 119.401 301.403 120.016 303.156C120.633 304.905 120.477 306.936 119.616 308.731C118.755 310.527 117.269 311.919 115.519 312.533C113.766 313.151 111.893 312.94 110.277 312.016C110.277 312.016 110.277 312.016 110.277 312.016C109.147 311.39 108.094 310.727 107.09 310.046C89.8382 297.718 79.0793 279.551 75.1571 260.327C74.9416 259.257 74.7519 258.202 74.5774 257.119C74.4815 256.507 74.6425 255.862 74.9998 255.331C75.3586 254.8 75.8844 254.426 76.4867 254.286C77.089 254.146 77.7256 254.25 78.2817 254.57C78.8364 254.889 79.2649 255.397 79.448 255.989C79.448 255.989 79.448 255.989 79.448 255.989C79.7536 256.973 80.0721 257.926 80.4131 258.886C86.446 276.043 99.0859 290.779 113.988 298.384C114.792 298.773 115.598 299.124 116.331 299.393Z" fill="#5A3310"/>
</svg>
