<svg width="235" height="360" viewBox="0 0 235 360" fill="none" xmlns="http://www.w3.org/2000/svg">
<path d="M93.6697 308.86C93.2295 305.41 93.7447 301.78 96.6782 299.911C100.409 297.536 107.759 294.892 122 294.892C136.241 294.892 143.591 297.536 147.322 299.911C150.255 301.78 150.771 305.41 150.33 308.86L144.73 352.758C144.73 352.758 144.73 359.892 122 359.892C99.2703 359.892 99.2703 352.758 99.2703 352.758L93.6697 308.86Z" fill="#7D664F"/>
<ellipse cx="122.5" cy="304.892" rx="25.5" ry="8" fill="#33281E"/>
<path fill-rule="evenodd" clip-rule="evenodd" d="M117.291 200.546C122.149 200.546 122.148 203.404 122.148 203.404L129.535 304.385C129.687 306.463 128.219 308.32 126.145 308.525C123.732 308.763 121.164 308.892 118.5 308.892C115.228 308.892 112.099 308.697 109.225 308.344C107.218 308.098 105.813 306.297 105.931 304.278L111.861 203.404C111.861 203.404 112.433 200.546 117.291 200.546Z" fill="#5A3310"/>
<path d="M117.135 262.391C115.403 263.073 114.066 264.401 113.451 266.155C112.834 267.904 112.99 269.935 113.851 271.73C114.712 273.525 116.198 274.918 117.948 275.532C119.7 276.15 121.574 275.939 123.19 275.015C123.19 275.015 123.19 275.015 123.19 275.015C124.319 274.389 125.373 273.726 126.377 273.045C143.629 260.717 154.387 242.55 158.31 223.326C158.525 222.256 158.715 221.201 158.889 220.117C158.985 219.506 158.824 218.861 158.467 218.33C158.108 217.798 157.582 217.425 156.98 217.285C156.378 217.145 155.741 217.249 155.185 217.568C154.63 217.888 154.202 218.396 154.019 218.987C154.019 218.987 154.019 218.987 154.019 218.987C153.713 219.972 153.395 220.925 153.054 221.885C147.021 239.042 134.381 253.778 119.478 261.382C118.674 261.771 117.869 262.123 117.135 262.391Z" fill="#5A3310"/>
<path d="M116.331 270.393C118.063 271.074 119.401 272.403 120.016 274.156C120.633 275.905 120.477 277.936 119.616 279.731C118.755 281.527 117.269 282.92 115.519 283.533C113.766 284.151 111.893 283.94 110.277 283.016C110.277 283.016 110.277 283.016 110.277 283.016C109.147 282.39 108.094 281.727 107.09 281.046C89.8382 268.718 79.0792 250.551 75.157 231.327C74.9415 230.257 74.7518 229.202 74.5774 228.119C74.4815 227.507 74.6424 226.862 74.9998 226.331C75.3586 225.8 75.8844 225.426 76.4867 225.286C77.0889 225.146 77.7256 225.251 78.2817 225.57C78.8363 225.889 79.2649 226.397 79.448 226.989C79.448 226.989 79.448 226.989 79.448 226.989C79.7535 227.973 80.072 228.926 80.413 229.886C86.4459 247.043 99.0858 261.779 113.988 269.384C114.792 269.773 115.598 270.124 116.331 270.393Z" fill="#5A3310"/>
<path d="M153.775 236.963C149.96 237.092 146.97 240.232 147.096 243.976C147.223 247.721 150.418 250.652 154.233 250.523C160.155 250.323 166.552 243.319 166.552 243.319C166.552 243.319 159.696 236.763 153.775 236.963Z" fill="#33803C"/>
<path d="M93.2027 241.851C91.6638 245.344 87.6368 246.952 84.2081 245.442C80.7795 243.931 79.2475 239.875 80.7865 236.381C83.1749 230.959 92.0557 227.627 92.0557 227.627C92.0557 227.627 95.5911 236.429 93.2027 241.851Z" fill="#33803C"/>
<path d="M127.458 207.468C123.842 208.691 119.937 206.804 118.737 203.255C117.537 199.706 119.496 195.838 123.112 194.615C128.725 192.718 137.178 197.021 137.178 197.021C137.178 197.021 133.07 205.57 127.458 207.468Z" fill="#33803C"/>
<path d="M123.797 193.825C124.982 197.454 123.057 201.339 119.496 202.503C115.935 203.667 112.086 201.669 110.9 198.041C109.06 192.409 113.448 184 113.448 184C113.448 184 121.956 188.194 123.797 193.825Z" fill="#33803C"/>
</svg>
