<svg width="235" height="361" viewBox="0 0 235 361" fill="none" xmlns="http://www.w3.org/2000/svg">
<ellipse cx="122.5" cy="161.284" rx="65.5" ry="75.5" fill="#33803C"/>
<ellipse cx="75.5" cy="211.784" rx="65.5" ry="73" fill="#33803C"/>
<ellipse cx="178.5" cy="193.284" rx="49.5" ry="57.5" fill="#33803C"/>
<ellipse cx="156.437" cy="236.523" rx="44.6518" ry="57.5" transform="rotate(116.722 156.437 236.523)" fill="#33803C"/>
<ellipse cx="85.4372" cy="149.523" rx="39.7822" ry="51.2292" transform="rotate(137.332 85.4372 149.523)" fill="#33803C"/>
<path d="M108.5 217.784C108.5 217.784 109.5 212.784 118 212.784C126.5 212.784 126.5 217.784 126.5 217.784L141 348.784C141 348.784 141 360.284 118 360.284C95 360.284 95 348.784 95 348.784L108.5 217.784Z" fill="#5A3310"/>
<path d="M118.973 244.473C117.266 245.206 115.95 246.58 115.335 248.333C114.718 250.083 114.852 252.068 115.688 253.811C116.524 255.555 117.988 256.902 119.739 257.517C121.491 258.134 123.386 257.968 125.027 257.096C125.027 257.096 125.027 257.096 125.027 257.096C126.855 256.135 128.605 255.091 130.288 254.01C159.592 234.21 179.123 203.709 186.777 170.847C187.201 169.016 187.581 167.208 187.935 165.349C188.053 164.723 187.912 164.064 187.558 163.52C187.202 162.975 186.663 162.591 186.042 162.447C185.422 162.303 184.768 162.411 184.209 162.743C183.651 163.076 183.234 163.605 183.065 164.219C183.065 164.219 183.065 164.219 183.065 164.219C182.579 165.979 182.07 167.685 181.521 169.406C171.756 200.201 150.345 227.271 123.389 242.347C121.907 243.137 120.405 243.869 118.973 244.473Z" fill="#5A3310"/>
<path d="M161.722 211.863C162.396 212.85 162.632 214.045 162.345 215.204C162.059 216.362 161.273 217.389 160.194 218.041C159.115 218.692 157.839 218.908 156.681 218.621C155.522 218.335 154.575 217.57 154.016 216.513C154.016 216.513 154.016 216.513 154.016 216.513C153.533 215.619 153.108 214.719 152.724 213.829C146.314 197.996 146.702 180.713 152.478 165.7C152.801 164.865 153.135 164.051 153.493 163.225C153.655 162.855 153.967 162.558 154.348 162.396C154.73 162.234 155.151 162.219 155.529 162.359C155.907 162.5 156.216 162.785 156.4 163.157C156.583 163.529 156.626 163.958 156.507 164.344C156.254 165.163 156.026 165.966 155.809 166.785C151.906 181.42 153.723 197.49 160.54 209.983C160.921 210.649 161.323 211.296 161.722 211.863Z" fill="#5A3310"/>
<path d="M144 233.185C142.807 233.134 141.662 233.563 140.818 234.408C139.974 235.251 139.5 236.44 139.5 237.685C139.5 238.93 139.974 240.12 140.818 240.963C141.662 241.807 142.807 242.236 144 242.185C144 242.185 144 242.185 144 242.185C144.995 242.138 146.139 242.132 147.308 242.108C169.948 243.239 189.355 226.165 197.901 207.652C198.415 206.639 198.923 205.597 199.426 204.526C199.599 204.155 199.616 203.722 199.482 203.327C199.347 202.932 199.073 202.606 198.711 202.418C198.348 202.229 197.924 202.192 197.523 202.309C197.123 202.426 196.778 202.689 196.574 203.043C196.574 203.043 196.574 203.043 196.574 203.043C196.001 204.04 195.425 205.004 194.846 205.936C184.664 223.306 166.976 235.979 147.493 233.399C146.38 233.329 145.28 233.237 144 233.185Z" fill="#5A3310"/>
<path d="M113.027 258.473C114.734 259.206 116.05 260.58 116.665 262.333C117.282 264.083 117.148 266.068 116.312 267.812C115.476 269.555 114.012 270.902 112.261 271.517C110.509 272.134 108.614 271.968 106.973 271.096C106.973 271.096 106.973 271.096 106.973 271.096C105.145 270.135 103.395 269.092 101.712 268.01C72.4076 248.21 52.8773 217.709 45.2234 184.847C44.7993 183.016 44.4191 181.208 44.0647 179.35C43.9465 178.724 44.0877 178.064 44.4422 177.52C44.7977 176.975 45.3374 176.591 45.9576 176.447C46.5778 176.303 47.2319 176.411 47.7907 176.743C48.3487 177.076 48.7658 177.605 48.9353 178.22C48.9353 178.22 48.9353 178.22 48.9353 178.22C49.4208 179.979 49.9298 181.685 50.4794 183.406C60.2441 214.201 81.6553 241.271 108.611 256.347C110.093 257.137 111.595 257.869 113.027 258.473Z" fill="#5A3310"/>
<path d="M58.5119 209.863C57.8377 210.85 57.6018 212.045 57.8893 213.204C58.1748 214.362 58.9604 215.39 60.0398 216.041C61.1193 216.692 62.3947 216.908 63.5523 216.621C64.7119 216.335 65.6587 215.57 66.2177 214.513C66.2177 214.513 66.2177 214.513 66.2177 214.513C66.7005 213.619 67.1254 212.719 67.51 211.829C73.9195 195.996 73.5315 178.713 67.7558 163.7C67.4329 162.865 67.0985 162.051 66.7405 161.225C66.5789 160.855 66.2669 160.559 65.8855 160.396C65.5033 160.234 65.0831 160.219 64.7048 160.359C64.3265 160.5 64.0177 160.785 63.834 161.158C63.651 161.53 63.6081 161.958 63.7271 162.344C63.9795 163.163 64.2081 163.966 64.4246 164.785C68.328 179.42 66.5109 195.49 59.6941 207.984C59.3132 208.649 58.9108 209.296 58.5119 209.863Z" fill="#5A3310"/>
<path d="M87.9999 247.185C89.1934 247.134 90.338 247.563 91.1819 248.408C92.0258 249.251 92.4999 250.44 92.4999 251.685C92.4999 252.93 92.0258 254.12 91.1819 254.963C90.338 255.807 89.1934 256.237 87.9999 256.185C87.9999 256.185 87.9999 256.185 87.9999 256.185C87.0049 256.138 85.8612 256.132 84.6924 256.108C62.0524 257.24 42.645 240.165 34.099 221.652C33.5852 220.639 33.0768 219.597 32.5741 218.526C32.4012 218.155 32.3843 217.723 32.5182 217.327C32.6525 216.932 32.9267 216.606 33.2893 216.418C33.6519 216.229 34.0758 216.192 34.4767 216.309C34.8771 216.426 35.2218 216.689 35.4258 217.043C35.4258 217.043 35.4258 217.043 35.4258 217.043C35.9985 218.04 36.5746 219.004 37.1535 219.936C47.336 237.307 65.0235 249.979 84.5073 247.399C85.6199 247.329 86.7202 247.237 87.9999 247.185Z" fill="#5A3310"/>
<g filter="url(#filter0_d_4_227)">
<ellipse cx="80.7114" cy="170.476" rx="57.2845" ry="56.9392" transform="rotate(137.332 80.7114 170.476)" fill="#33803C"/>
</g>
<g filter="url(#filter1_d_4_227)">
<ellipse cx="154.711" cy="170.476" rx="57.2845" ry="56.9392" transform="rotate(137.332 154.711 170.476)" fill="#33803C"/>
</g>
<g filter="url(#filter2_d_4_227)">
<ellipse cx="109.609" cy="146.378" rx="42.3068" ry="42.0519" transform="rotate(137.332 109.609 146.378)" fill="#33803C"/>
</g>
<path d="M89.7865 131.573C89.7865 135.085 87.2749 141.243 84.1767 141.243C81.0785 141.243 78.567 135.085 78.567 131.573C78.567 128.062 81.0785 125.215 84.1767 125.215C87.2749 125.215 89.7865 128.062 89.7865 131.573Z" fill="#F5B5DC"/>
<path d="M97.4667 140.917C94.9629 143.266 88.5425 145.482 86.0388 143.133C83.5351 140.783 85.8962 134.758 88.3999 132.408C90.9036 130.058 94.9629 130.058 97.4667 132.408C99.9704 134.758 99.9704 138.567 97.4667 140.917Z" fill="#F5B5DC"/>
<path d="M83.7619 149.195C82.8455 145.775 84.4771 138.909 88.4723 137.839C92.4674 136.768 97.3133 141.898 98.2297 145.318C99.1461 148.739 96.6503 152.379 92.6552 153.449C88.66 154.52 84.6784 152.615 83.7619 149.195Z" fill="#F5B5DC"/>
<path d="M85.8787 149.195C86.7952 145.775 85.1636 138.909 81.1684 137.839C77.1733 136.768 72.3274 141.898 71.411 145.318C70.4946 148.739 72.9904 152.379 76.9855 153.449C80.9807 154.52 84.9623 152.615 85.8787 149.195Z" fill="#F5B5DC"/>
<path d="M70.8124 140.917C73.3161 143.266 79.7366 145.482 82.2403 143.133C84.744 140.783 82.3828 134.758 79.8791 132.408C77.3754 130.058 73.3161 130.058 70.8124 132.408C68.3087 134.758 68.3087 138.567 70.8124 140.917Z" fill="#F5B5DC"/>
<path d="M164.507 156.25C164.507 159.762 161.996 165.92 158.898 165.92C155.799 165.92 153.288 159.762 153.288 156.25C153.288 152.739 155.799 149.892 158.898 149.892C161.996 149.892 164.507 152.739 164.507 156.25Z" fill="#F5B5DC"/>
<path d="M172.188 165.594C169.684 167.944 163.263 170.159 160.76 167.81C158.256 165.46 160.617 159.435 163.121 157.085C165.625 154.735 169.684 154.735 172.188 157.085C174.691 159.435 174.691 163.244 172.188 165.594Z" fill="#F5B5DC"/>
<path d="M158.483 173.872C157.566 170.452 159.198 163.586 163.193 162.516C167.188 161.445 172.034 166.575 172.951 169.996C173.867 173.416 171.371 177.056 167.376 178.127C163.381 179.197 159.399 177.292 158.483 173.872Z" fill="#F5B5DC"/>
<path d="M160.6 173.872C161.516 170.452 159.885 163.586 155.889 162.516C151.894 161.445 147.048 166.575 146.132 169.996C145.216 173.416 147.711 177.056 151.706 178.127C155.702 179.197 159.683 177.292 160.6 173.872Z" fill="#F5B5DC"/>
<path d="M145.533 165.594C148.037 167.944 154.458 170.159 156.961 167.81C159.465 165.46 157.104 159.435 154.6 157.085C152.096 154.735 148.037 154.735 145.533 157.085C143.03 159.435 143.03 163.244 145.533 165.594Z" fill="#F5B5DC"/>
<path d="M61.5074 193.25C61.5074 196.762 58.9958 202.92 55.8977 202.92C52.7995 202.92 50.2879 196.762 50.2879 193.25C50.2879 189.739 52.7995 186.892 55.8977 186.892C58.9958 186.892 61.5074 189.739 61.5074 193.25Z" fill="#F5B5DC"/>
<path d="M69.1876 202.594C66.6839 204.944 60.2634 207.159 57.7597 204.81C55.256 202.46 57.6172 196.435 60.1209 194.085C62.6246 191.735 66.6839 191.735 69.1876 194.085C71.6913 196.435 71.6913 200.244 69.1876 202.594Z" fill="#F5B5DC"/>
<path d="M55.4829 210.872C54.5665 207.452 56.198 200.586 60.1932 199.516C64.1884 198.445 69.0342 203.575 69.9507 206.996C70.8671 210.416 68.3713 214.056 64.3761 215.127C60.3809 216.197 56.3993 214.292 55.4829 210.872Z" fill="#F5B5DC"/>
<path d="M57.5997 210.872C58.5161 207.452 56.8845 200.586 52.8894 199.516C48.8942 198.445 44.0483 203.575 43.1319 206.996C42.2155 210.416 44.7113 214.056 48.7065 215.127C52.7016 216.197 56.6833 214.292 57.5997 210.872Z" fill="#F5B5DC"/>
<path d="M42.5333 202.594C45.0371 204.944 51.4575 207.159 53.9612 204.81C56.4649 202.46 54.1038 196.435 51.6001 194.085C49.0964 191.735 45.0371 191.735 42.5333 194.085C40.0296 196.435 40.0296 200.244 42.5333 202.594Z" fill="#F5B5DC"/>
<path d="M172.507 246.25C172.507 249.762 169.996 255.92 166.898 255.92C163.799 255.92 161.288 249.762 161.288 246.25C161.288 242.739 163.799 239.892 166.898 239.892C169.996 239.892 172.507 242.739 172.507 246.25Z" fill="#F5B5DC"/>
<path d="M180.188 255.594C177.684 257.944 171.263 260.159 168.76 257.81C166.256 255.46 168.617 249.435 171.121 247.085C173.625 244.735 177.684 244.735 180.188 247.085C182.691 249.435 182.691 253.244 180.188 255.594Z" fill="#F5B5DC"/>
<path d="M166.483 263.872C165.566 260.452 167.198 253.586 171.193 252.516C175.188 251.445 180.034 256.575 180.951 259.996C181.867 263.416 179.371 267.056 175.376 268.127C171.381 269.197 167.399 267.292 166.483 263.872Z" fill="#F5B5DC"/>
<path d="M168.6 263.872C169.516 260.452 167.885 253.586 163.889 252.516C159.894 251.445 155.048 256.575 154.132 259.996C153.216 263.416 155.711 267.056 159.706 268.127C163.702 269.197 167.683 267.292 168.6 263.872Z" fill="#F5B5DC"/>
<path d="M153.533 255.594C156.037 257.944 162.458 260.159 164.961 257.81C167.465 255.46 165.104 249.435 162.6 247.085C160.096 244.735 156.037 244.735 153.533 247.085C151.03 249.435 151.03 253.244 153.533 255.594Z" fill="#F5B5DC"/>
<circle cx="131" cy="115.892" r="6" fill="#F5B5DC"/>
<circle cx="131" cy="206.892" r="6" fill="#F5B5DC"/>
<circle cx="204" cy="200.892" r="6" fill="#F5B5DC"/>
<circle cx="50" cy="154.892" r="6" fill="#F5B5DC"/>
<circle cx="40" cy="236.892" r="6" fill="#F5B5DC"/>
<defs>
<filter id="filter0_d_4_227" x="19.585" y="113.378" width="122.253" height="127.197" filterUnits="userSpaceOnUse" color-interpolation-filters="sRGB">
<feFlood flood-opacity="0" result="BackgroundImageFix"/>
<feColorMatrix in="SourceAlpha" type="matrix" values="0 0 0 0 0 0 0 0 0 0 0 0 0 0 0 0 0 0 127 0" result="hardAlpha"/>
<feOffset dy="9"/>
<feGaussianBlur stdDeviation="2"/>
<feComposite in2="hardAlpha" operator="out"/>
<feColorMatrix type="matrix" values="0 0 0 0 0.0526322 0 0 0 0 0.3625 0 0 0 0 0.336677 0 0 0 0.25 0"/>
<feBlend mode="normal" in2="BackgroundImageFix" result="effect1_dropShadow_4_227"/>
<feBlend mode="normal" in="SourceGraphic" in2="effect1_dropShadow_4_227" result="shape"/>
</filter>
<filter id="filter1_d_4_227" x="93.585" y="113.378" width="122.253" height="127.197" filterUnits="userSpaceOnUse" color-interpolation-filters="sRGB">
<feFlood flood-opacity="0" result="BackgroundImageFix"/>
<feColorMatrix in="SourceAlpha" type="matrix" values="0 0 0 0 0 0 0 0 0 0 0 0 0 0 0 0 0 0 127 0" result="hardAlpha"/>
<feOffset dy="9"/>
<feGaussianBlur stdDeviation="2"/>
<feComposite in2="hardAlpha" operator="out"/>
<feColorMatrix type="matrix" values="0 0 0 0 0.0526322 0 0 0 0 0.3625 0 0 0 0 0.336677 0 0 0 0.25 0"/>
<feBlend mode="normal" in2="BackgroundImageFix" result="effect1_dropShadow_4_227"/>
<feBlend mode="normal" in="SourceGraphic" in2="effect1_dropShadow_4_227" result="shape"/>
</filter>
<filter id="filter2_d_4_227" x="63.4184" y="104.209" width="92.3803" height="97.3387" filterUnits="userSpaceOnUse" color-interpolation-filters="sRGB">
<feFlood flood-opacity="0" result="BackgroundImageFix"/>
<feColorMatrix in="SourceAlpha" type="matrix" values="0 0 0 0 0 0 0 0 0 0 0 0 0 0 0 0 0 0 127 0" result="hardAlpha"/>
<feOffset dy="9"/>
<feGaussianBlur stdDeviation="2"/>
<feComposite in2="hardAlpha" operator="out"/>
<feColorMatrix type="matrix" values="0 0 0 0 0.0526322 0 0 0 0 0.3625 0 0 0 0 0.336677 0 0 0 0.25 0"/>
<feBlend mode="normal" in2="BackgroundImageFix" result="effect1_dropShadow_4_227"/>
<feBlend mode="normal" in="SourceGraphic" in2="effect1_dropShadow_4_227" result="shape"/>
</filter>
</defs>
</svg>
