<svg width="235" height="360" viewBox="0 0 235 360" fill="none" xmlns="http://www.w3.org/2000/svg">
<path d="M89.6697 308.664C89.2295 305.214 89.7447 301.584 92.6782 299.715C96.4087 297.339 103.759 294.696 118 294.696C132.241 294.696 139.591 297.339 143.322 299.715C146.255 301.584 146.771 305.214 146.33 308.664L140.73 352.562C140.73 352.562 140.73 359.696 118 359.696C95.2703 359.696 95.2703 352.562 95.2703 352.562L89.6697 308.664Z" fill="#7D664F"/>
<ellipse cx="118.5" cy="304.696" rx="25.5" ry="8" fill="#33281E"/>
<ellipse cx="86.5" cy="247.892" rx="37.5" ry="41" fill="#33803C"/>
<ellipse cx="116.5" cy="217.392" rx="54.5" ry="62.5" fill="#836C3A"/>
<ellipse cx="149.5" cy="247.892" rx="37.5" ry="41" fill="#33803C"/>
<path fill-rule="evenodd" clip-rule="evenodd" d="M116.291 200.546C121.149 200.546 121.148 203.404 121.148 203.404L128.535 304.385C128.687 306.463 127.219 308.32 125.145 308.525C122.732 308.763 120.164 308.892 117.5 308.892C114.228 308.892 111.099 308.697 108.225 308.344C106.218 308.098 104.813 306.297 104.932 304.278L110.861 203.404C110.861 203.404 111.433 200.546 116.291 200.546Z" fill="#5A3310"/>
<path d="M116.135 262.391C114.403 263.073 113.066 264.401 112.451 266.155C111.834 267.904 111.99 269.935 112.851 271.73C113.712 273.525 115.198 274.918 116.948 275.532C118.7 276.15 120.574 275.939 122.189 275.015C122.189 275.015 122.189 275.015 122.189 275.015C123.319 274.389 124.373 273.726 125.377 273.045C142.628 260.717 153.387 242.55 157.31 223.326C157.525 222.256 157.715 221.201 157.889 220.117C157.985 219.506 157.824 218.861 157.467 218.33C157.108 217.798 156.582 217.425 155.98 217.285C155.378 217.145 154.741 217.249 154.185 217.568C153.63 217.888 153.202 218.396 153.019 218.987C153.019 218.987 153.019 218.987 153.019 218.987C152.713 219.972 152.395 220.925 152.054 221.885C146.021 239.042 133.381 253.778 118.478 261.382C117.674 261.771 116.869 262.123 116.135 262.391Z" fill="#5A3310"/>
<path d="M115.331 270.393C117.063 271.074 118.401 272.403 119.016 274.156C119.633 275.905 119.477 277.936 118.616 279.731C117.755 281.527 116.269 282.92 114.519 283.533C112.766 284.151 110.893 283.94 109.277 283.016C109.277 283.016 109.277 283.016 109.277 283.016C108.147 282.39 107.094 281.727 106.089 281.046C88.8382 268.718 78.0792 250.551 74.157 231.327C73.9415 230.257 73.7518 229.202 73.5773 228.119C73.4814 227.507 73.6424 226.862 73.9998 226.331C74.3585 225.8 74.8844 225.426 75.4866 225.286C76.0889 225.146 76.7256 225.251 77.2817 225.57C77.8363 225.889 78.2649 226.397 78.448 226.989C78.448 226.989 78.448 226.989 78.448 226.989C78.7535 227.973 79.072 228.926 79.413 229.886C85.4459 247.043 98.0858 261.779 112.988 269.384C113.792 269.773 114.598 270.124 115.331 270.393Z" fill="#5A3310"/>
</svg>
