<svg width="217" height="360" viewBox="0 0 217 360" fill="none" xmlns="http://www.w3.org/2000/svg">
<path d="M102.498 201.111C102.498 201.111 103.499 195.556 112.001 195.556C120.503 195.556 120.503 201.111 120.503 201.111L135.007 346.667C135.007 346.667 135.007 359.444 112.001 359.444C88.9951 359.444 88.9951 346.667 88.9951 346.667L102.498 201.111Z" fill="#5A3310"/>
<path d="M112.711 231.6C111.038 232.409 109.784 233.842 109.243 235.619C108.701 237.394 108.917 239.367 109.824 241.069C110.731 242.771 112.248 244.051 114.023 244.591C115.8 245.134 117.688 244.892 119.293 243.956C119.293 243.956 119.293 243.956 119.293 243.956C121.229 242.838 123.024 241.651 124.794 240.392C155.073 217.598 173.519 183.808 180.857 148.629C181.261 146.668 181.625 144.726 181.965 142.733C182.071 142.104 181.917 141.446 181.551 140.909C181.184 140.371 180.635 139.997 180.01 139.867C179.385 139.736 178.732 139.859 178.18 140.205C177.629 140.551 177.225 141.091 177.071 141.711C177.071 141.711 177.071 141.711 177.071 141.711C176.596 143.616 176.099 145.466 175.564 147.328C166.056 180.651 145.297 211.322 117.316 229.092C115.756 230.034 114.212 230.884 112.711 231.6Z" fill="#5A3310"/>
<path d="M155.551 194.829C156.194 195.885 156.419 197.141 156.148 198.34C155.878 199.537 155.134 200.579 154.109 201.218C153.083 201.856 151.87 202.034 150.764 201.692C149.657 201.352 148.748 200.521 148.209 199.401C148.209 199.401 148.209 199.401 148.209 199.401C147.715 198.394 147.285 197.39 146.893 196.387C140.39 178.634 140.904 159.596 146.57 143.191C146.887 142.278 147.216 141.388 147.567 140.484C147.717 140.101 148.012 139.799 148.375 139.639C148.738 139.48 149.14 139.477 149.503 139.635C149.867 139.793 150.165 140.1 150.343 140.495C150.521 140.889 150.565 141.338 150.453 141.738C150.453 141.738 150.453 141.738 150.453 141.738C150.202 142.639 149.973 143.524 149.757 144.426C145.856 160.532 147.479 178.471 154.353 192.684C154.74 193.446 155.145 194.179 155.551 194.829Z" fill="#5A3310"/>
<path d="M137.828 218.681C136.645 218.632 135.529 219.067 134.728 219.92C133.926 220.771 133.504 221.969 133.554 223.223C133.603 224.477 134.12 225.675 134.989 226.526C135.858 227.379 137.008 227.814 138.187 227.765C138.187 227.765 138.187 227.765 138.187 227.765C139.218 227.718 140.422 227.72 141.645 227.698C165.839 228.822 183.82 209.049 192.007 189.632C192.497 188.552 192.983 187.442 193.463 186.301C193.62 185.927 193.62 185.489 193.471 185.09C193.322 184.69 193.036 184.362 192.669 184.172C192.301 183.982 191.879 183.944 191.487 184.064C191.095 184.184 190.766 184.45 190.579 184.81C190.025 185.879 189.467 186.914 188.907 187.917C179.108 206.336 161.976 221.614 141.487 218.907C140.331 218.835 139.183 218.734 137.828 218.681Z" fill="#5A3310"/>
<path d="M107.29 247.155C108.962 247.965 110.217 249.397 110.757 251.174C111.299 252.949 111.083 254.923 110.177 256.625C109.27 258.327 107.753 259.607 105.977 260.147C104.201 260.689 102.312 260.448 100.708 259.511C100.708 259.511 100.708 259.511 100.708 259.511C98.7721 258.393 96.9763 257.207 95.2068 255.947C64.9275 233.153 46.4819 199.363 39.1442 164.184C38.74 162.224 38.3755 160.281 38.0358 158.289C37.9295 157.659 38.0834 157.002 38.4496 156.464C38.8167 155.927 39.3662 155.553 39.991 155.422C40.6159 155.292 41.269 155.414 41.8206 155.76C42.3714 156.106 42.7756 156.647 42.9302 157.267C42.9302 157.267 42.9302 157.267 42.9302 157.267C43.4047 159.171 43.9022 161.022 44.4368 162.884C53.9446 196.206 74.7036 226.878 102.685 244.648C104.245 245.59 105.789 246.44 107.29 247.155Z" fill="#5A3310"/>
<path d="M52.6808 192.607C52.0381 193.663 51.8127 194.919 52.084 196.118C52.3536 197.315 53.0978 198.357 54.123 198.996C55.1483 199.634 56.3621 199.811 57.4677 199.47C58.5749 199.13 59.4833 198.299 60.0227 197.179C60.0227 197.179 60.0227 197.179 60.0227 197.179C60.5165 196.172 60.9462 195.168 61.3391 194.165C67.8417 176.412 67.3278 157.374 61.6616 140.969C61.3445 140.056 61.0159 139.166 60.6645 138.262C60.5143 137.879 60.2199 137.577 59.8571 137.417C59.4937 137.258 59.0915 137.255 58.7281 137.413C58.3647 137.571 58.0666 137.878 57.8882 138.273C57.7104 138.667 57.667 139.116 57.7785 139.516C57.7785 139.516 57.7785 139.516 57.7785 139.516C58.03 140.417 58.2583 141.302 58.4746 142.204C62.3756 158.31 60.7521 176.248 53.8784 190.462C53.4921 191.223 53.0865 191.957 52.6808 192.607Z" fill="#5A3310"/>
<path d="M82.1727 234.236C83.3559 234.187 84.4715 234.623 85.273 235.476C86.0747 236.327 86.4966 237.525 86.4471 238.779C86.3976 240.032 85.881 241.231 85.0121 242.082C84.1432 242.934 82.9932 243.37 81.8139 243.321C81.8139 243.321 81.8139 243.321 81.8139 243.321C80.7831 243.274 79.5785 243.276 78.3559 243.253C54.1618 244.377 36.1807 224.605 27.9934 205.188C27.5033 204.107 27.018 202.998 26.5379 201.857C26.381 201.482 26.3812 201.045 26.5299 200.646C26.6791 200.246 26.9645 199.917 27.332 199.727C27.6995 199.537 28.1215 199.5 28.5136 199.62C28.9053 199.739 29.2351 200.006 29.4219 200.365C29.976 201.434 30.5334 202.47 31.0937 203.472C40.8931 221.892 58.0242 237.169 78.5135 234.463C79.6702 234.391 80.8178 234.289 82.1727 234.236Z" fill="#5A3310"/>
<path d="M96.1359 124.663C103.194 110.395 123.618 110.612 130.371 125.027L189.919 252.122C193.834 260.479 191.074 270.32 182.648 274.085C168.171 280.553 142.929 288.769 108.928 288.188C76.0931 287.627 53.0682 280.233 39.7204 274.274C31.3525 270.538 28.8176 260.743 32.8809 252.529L96.1359 124.663Z" fill="#33803C"/>
<g filter="url(#filter0_d_4_56)">
<path d="M92.2911 90.1512C99.7009 78.0354 117.299 78.0354 124.709 90.1512L209.59 228.939C213.984 236.124 212.881 245.185 205.599 249.417C191 257.901 160.824 269.792 106.362 269.792C51.5685 269.792 23.1483 257.756 9.91494 249.262C3.34532 245.046 2.67739 236.678 6.75028 230.018L92.2911 90.1512Z" fill="#33803C"/>
</g>
<g filter="url(#filter1_d_4_56)">
<path d="M92.8494 74.9847C100.4 64.0155 116.6 64.0155 124.151 74.9847L202.364 188.61C208.02 196.826 206.015 207.631 196.777 211.396C181.307 217.702 153.343 225.439 108.5 226.032C62.71 226.637 34.5196 218.345 19.2593 211.585C10.4291 207.673 8.72942 197.19 14.2054 189.234L92.8494 74.9847Z" fill="#33803C"/>
</g>
<g filter="url(#filter2_d_4_56)">
<path d="M78.1996 52.4091C91.6758 29.1 125.324 29.1 138.8 52.4091L192.025 144.47C197.253 153.512 194.192 164.434 184.147 167.295C169.87 171.362 145.481 175.745 106.672 175.745C67.814 175.745 44.4658 171.351 31.172 167.28C21.8143 164.414 19.305 154.276 24.2034 145.804L78.1996 52.4091Z" fill="#33803C"/>
</g>
<defs>
<filter id="filter0_d_4_56" x="0.211426" y="81.0643" width="215.971" height="201.728" filterUnits="userSpaceOnUse" color-interpolation-filters="sRGB">
<feFlood flood-opacity="0" result="BackgroundImageFix"/>
<feColorMatrix in="SourceAlpha" type="matrix" values="0 0 0 0 0 0 0 0 0 0 0 0 0 0 0 0 0 0 127 0" result="hardAlpha"/>
<feOffset dy="9"/>
<feGaussianBlur stdDeviation="2"/>
<feComposite in2="hardAlpha" operator="out"/>
<feColorMatrix type="matrix" values="0 0 0 0 0.0526322 0 0 0 0 0.3625 0 0 0 0 0.336677 0 0 0 0.25 0"/>
<feBlend mode="normal" in2="BackgroundImageFix" result="effect1_dropShadow_4_56"/>
<feBlend mode="normal" in="SourceGraphic" in2="effect1_dropShadow_4_56" result="shape"/>
</filter>
<filter id="filter1_d_4_56" x="7.06873" y="66.7578" width="202.449" height="172.305" filterUnits="userSpaceOnUse" color-interpolation-filters="sRGB">
<feFlood flood-opacity="0" result="BackgroundImageFix"/>
<feColorMatrix in="SourceAlpha" type="matrix" values="0 0 0 0 0 0 0 0 0 0 0 0 0 0 0 0 0 0 127 0" result="hardAlpha"/>
<feOffset dy="9"/>
<feGaussianBlur stdDeviation="2"/>
<feComposite in2="hardAlpha" operator="out"/>
<feColorMatrix type="matrix" values="0 0 0 0 0.0526322 0 0 0 0 0.3625 0 0 0 0 0.336677 0 0 0 0.25 0"/>
<feBlend mode="normal" in2="BackgroundImageFix" result="effect1_dropShadow_4_56"/>
<feBlend mode="normal" in="SourceGraphic" in2="effect1_dropShadow_4_56" result="shape"/>
</filter>
<filter id="filter2_d_4_56" x="17.7535" y="34.9273" width="180.787" height="153.818" filterUnits="userSpaceOnUse" color-interpolation-filters="sRGB">
<feFlood flood-opacity="0" result="BackgroundImageFix"/>
<feColorMatrix in="SourceAlpha" type="matrix" values="0 0 0 0 0 0 0 0 0 0 0 0 0 0 0 0 0 0 127 0" result="hardAlpha"/>
<feOffset dy="9"/>
<feGaussianBlur stdDeviation="2"/>
<feComposite in2="hardAlpha" operator="out"/>
<feColorMatrix type="matrix" values="0 0 0 0 0.0526322 0 0 0 0 0.3625 0 0 0 0 0.336677 0 0 0 0.25 0"/>
<feBlend mode="normal" in2="BackgroundImageFix" result="effect1_dropShadow_4_56"/>
<feBlend mode="normal" in="SourceGraphic" in2="effect1_dropShadow_4_56" result="shape"/>
</filter>
</defs>
</svg>
