<svg width="235" height="360" viewBox="0 0 235 360" fill="none" xmlns="http://www.w3.org/2000/svg">
<path d="M107.409 173.405C107.409 173.405 108.409 168.892 116.909 168.892C125.409 168.892 125.409 173.405 125.409 173.405L135 349.512C135 349.512 135 359.892 118 359.892C101 359.892 101 349.512 101 349.512L107.409 173.405Z" fill="#5A3310"/>
<path d="M118.973 270.58C117.266 271.314 115.95 272.688 115.335 274.441C114.718 276.191 114.852 278.176 115.688 279.919C116.524 281.663 117.988 283.01 119.739 283.625C121.491 284.242 123.386 284.076 125.027 283.204C125.027 283.204 125.027 283.204 125.027 283.204C126.855 282.243 128.605 281.199 130.288 280.117C159.592 260.317 179.123 229.817 186.777 196.955C187.201 195.124 187.581 193.316 187.935 191.457C188.053 190.831 187.912 190.172 187.558 189.628C187.202 189.083 186.663 188.698 186.042 188.554C185.422 188.41 184.768 188.518 184.209 188.851C183.651 189.183 183.234 189.713 183.065 190.327C183.065 190.327 183.065 190.327 183.065 190.327C182.579 192.087 182.07 193.792 181.521 195.514C171.756 226.309 150.345 253.378 123.389 268.455C121.907 269.245 120.405 269.977 118.973 270.58Z" fill="#5A3310"/>
<path d="M161.722 237.971C162.396 238.958 162.632 240.152 162.345 241.311C162.059 242.469 161.273 243.497 160.194 244.149C159.114 244.8 157.839 245.016 156.681 244.729C155.522 244.443 154.575 243.677 154.016 242.621C154.016 242.621 154.016 242.621 154.016 242.621C153.533 241.727 153.108 240.827 152.724 239.937C146.314 224.104 146.702 206.821 152.478 191.808C152.801 190.972 153.135 190.159 153.493 189.333C153.655 188.963 153.967 188.666 154.348 188.504C154.73 188.341 155.151 188.327 155.529 188.467C155.907 188.607 156.216 188.893 156.4 189.265C156.583 189.637 156.626 190.066 156.507 190.451C156.254 191.27 156.026 192.073 155.809 192.893C151.906 207.528 153.723 223.598 160.54 236.091C160.921 236.756 161.323 237.403 161.722 237.971Z" fill="#5A3310"/>
<path d="M144 259.293C142.807 259.242 141.662 259.671 140.818 260.515C139.974 261.359 139.5 262.548 139.5 263.793C139.5 265.038 139.974 266.227 140.818 267.07C141.662 267.915 142.807 268.344 144 268.293C144 268.293 144 268.293 144 268.293C144.995 268.246 146.139 268.24 147.308 268.216C169.948 269.347 189.355 252.273 197.901 233.759C198.415 232.747 198.923 231.705 199.426 230.634C199.599 230.263 199.616 229.83 199.482 229.435C199.347 229.039 199.073 228.714 198.711 228.525C198.348 228.337 197.924 228.299 197.523 228.417C197.123 228.534 196.778 228.796 196.574 229.151C196.574 229.151 196.574 229.151 196.574 229.151C196.001 230.147 195.425 231.111 194.846 232.043C184.664 249.414 166.976 262.087 147.493 259.507C146.38 259.437 145.28 259.344 144 259.293Z" fill="#5A3310"/>
<path d="M113.027 284.581C114.734 285.314 116.05 286.688 116.665 288.441C117.282 290.191 117.148 292.176 116.312 293.919C115.476 295.663 114.011 297.01 112.261 297.625C110.509 298.242 108.614 298.076 106.973 297.204C106.973 297.204 106.973 297.204 106.973 297.204C105.145 296.243 103.395 295.199 101.712 294.118C72.4076 274.317 52.8773 243.817 45.2234 210.955C44.7992 209.124 44.419 207.316 44.0647 205.457C43.9465 204.831 44.0876 204.172 44.4422 203.628C44.7976 203.083 45.3374 202.698 45.9576 202.554C46.5778 202.411 47.2319 202.518 47.7907 202.851C48.3487 203.183 48.7657 203.713 48.9353 204.327C48.9353 204.327 48.9353 204.327 48.9353 204.327C49.4207 206.087 49.9298 207.793 50.4793 209.514C60.244 240.309 81.6552 267.378 108.611 282.455C110.093 283.245 111.595 283.977 113.027 284.581Z" fill="#5A3310"/>
<path d="M58.5119 235.971C57.8376 236.958 57.6017 238.152 57.8892 239.311C58.1748 240.469 58.9603 241.497 60.0398 242.149C61.1192 242.8 62.3947 243.016 63.5523 242.729C64.7118 242.443 65.6586 241.677 66.2176 240.621C66.2176 240.621 66.2176 240.621 66.2176 240.621C66.7004 239.727 67.1254 238.827 67.5099 237.937C73.9194 222.104 73.5315 204.821 67.7558 189.808C67.4329 188.973 67.0984 188.159 66.7404 187.333C66.5788 186.963 66.2668 186.666 65.8854 186.504C65.5033 186.341 65.083 186.327 64.7047 186.467C64.3264 186.607 64.0176 186.893 63.8339 187.265C63.6509 187.637 63.6081 188.066 63.7271 188.452C63.9795 189.27 64.2081 190.073 64.4246 190.893C68.3279 205.528 66.5109 221.598 59.694 234.091C59.3132 234.756 58.9107 235.403 58.5119 235.971Z" fill="#5A3310"/>
<path d="M87.9999 273.293C89.1934 273.242 90.338 273.671 91.1819 274.516C92.0258 275.359 92.4999 276.548 92.4999 277.793C92.4999 279.038 92.0258 280.227 91.1819 281.07C90.338 281.915 89.1934 282.344 87.9999 282.293C87.9999 282.293 87.9999 282.293 87.9999 282.293C87.0049 282.246 85.8612 282.24 84.6924 282.216C62.0524 283.347 42.645 266.273 34.099 247.76C33.5852 246.747 33.0768 245.705 32.5741 244.634C32.4012 244.263 32.3843 243.83 32.5182 243.435C32.6525 243.04 32.9267 242.714 33.2893 242.526C33.6519 242.337 34.0758 242.299 34.4767 242.417C34.8771 242.534 35.2218 242.796 35.4258 243.151C35.4258 243.151 35.4258 243.151 35.4258 243.151C35.9985 244.147 36.5746 245.111 37.1535 246.043C47.336 263.414 65.0235 276.087 84.5073 273.507C85.6199 273.437 86.7202 273.344 87.9999 273.293Z" fill="#5A3310"/>
</svg>
