<svg width="235" height="360" viewBox="0 0 235 360" fill="none" xmlns="http://www.w3.org/2000/svg">
<path d="M112.848 231.75C112.848 231.75 113.42 228.892 118.278 228.892C123.136 228.892 123.136 231.75 123.136 231.75L132.009 353.058C132.009 353.058 132.009 359.631 118.864 359.631C105.719 359.631 105.719 353.058 105.719 353.058L112.848 231.75Z" fill="#5A3310"/>
<path d="M118.123 290.738C116.391 291.419 115.053 292.748 114.438 294.501C113.821 296.25 113.977 298.281 114.838 300.076C115.699 301.872 117.185 303.264 118.935 303.878C120.688 304.496 122.561 304.285 124.177 303.361C124.177 303.361 124.177 303.361 124.177 303.361C125.307 302.735 126.36 302.072 127.365 301.391C144.616 289.063 155.375 270.896 159.297 251.672C159.513 250.602 159.702 249.547 159.877 248.463C159.973 247.852 159.812 247.207 159.454 246.676C159.095 246.145 158.57 245.771 157.967 245.631C157.365 245.491 156.728 245.595 156.172 245.914C155.618 246.234 155.189 246.742 155.006 247.333C155.006 247.333 155.006 247.333 155.006 247.333C154.7 248.318 154.382 249.271 154.041 250.231C148.008 267.388 135.368 282.124 120.466 289.729C119.662 290.117 118.856 290.469 118.123 290.738Z" fill="#5A3310"/>
<path d="M117.319 298.739C119.051 299.42 120.388 300.749 121.003 302.502C121.62 304.251 121.464 306.282 120.603 308.077C119.742 309.873 118.256 311.266 116.506 311.88C114.754 312.498 112.88 312.286 111.265 311.362C111.265 311.362 111.265 311.362 111.265 311.362C110.135 310.736 109.081 310.073 108.077 309.392C90.8255 297.064 80.0665 278.897 76.1444 259.674C75.9288 258.604 75.7391 257.548 75.5647 256.465C75.4688 255.853 75.6298 255.208 75.9871 254.677C76.3459 254.146 76.8717 253.772 77.474 253.632C78.0763 253.493 78.7129 253.597 79.269 253.916C79.8236 254.235 80.2522 254.743 80.4353 255.335C80.4353 255.335 80.4353 255.335 80.4353 255.335C80.7409 256.319 81.0594 257.272 81.4003 258.232C87.4333 275.389 100.073 290.125 114.976 297.73C115.78 298.119 116.585 298.47 117.319 298.739Z" fill="#5A3310"/>
<path d="M153.775 265.963C149.96 266.092 146.97 269.232 147.096 272.976C147.223 276.721 150.418 279.652 154.233 279.523C160.155 279.323 166.552 272.319 166.552 272.319C166.552 272.319 159.696 265.763 153.775 265.963Z" fill="#33803C"/>
<path d="M93.2027 270.851C91.6638 274.344 87.6368 275.952 84.2081 274.442C80.7795 272.931 79.2475 268.875 80.7865 265.381C83.1749 259.959 92.0557 256.627 92.0557 256.627C92.0557 256.627 95.5911 265.429 93.2027 270.851Z" fill="#33803C"/>
<path d="M127.458 236.468C123.842 237.69 119.937 235.804 118.737 232.255C117.537 228.706 119.496 224.838 123.112 223.615C128.725 221.717 137.178 226.02 137.178 226.02C137.178 226.02 133.07 234.57 127.458 236.468Z" fill="#33803C"/>
<path d="M123.797 222.825C124.982 226.454 123.057 230.339 119.496 231.503C115.935 232.667 112.086 230.669 110.9 227.04C109.06 221.409 113.448 213 113.448 213C113.448 213 121.956 217.194 123.797 222.825Z" fill="#33803C"/>
</svg>
