<svg width="235" height="360" viewBox="0 0 235 360" fill="none" xmlns="http://www.w3.org/2000/svg">
<ellipse cx="122.169" cy="196.06" rx="59.3055" ry="68.3597" fill="#33803C"/>
<ellipse cx="79.6139" cy="230.111" rx="59.3055" ry="66.0962" fill="#33803C"/>
<ellipse cx="172.873" cy="225.033" rx="44.8186" ry="52.062" fill="#33803C"/>
<ellipse cx="149.275" cy="258.848" rx="40.429" ry="52.062" transform="rotate(116.722 149.275 258.848)" fill="#33803C"/>
<ellipse cx="88.6113" cy="185.411" rx="36.0199" ry="46.3843" transform="rotate(137.332 88.6113 185.411)" fill="#33803C"/>
<path d="M107.409 173.405C107.409 173.405 108.409 168.892 116.909 168.892C125.409 168.892 125.409 173.405 125.409 173.405L135 349.512C135 349.512 135 359.892 118 359.892C101 359.892 101 349.512 101 349.512L107.409 173.405Z" fill="#5A3310"/>
<path d="M118.973 270.58C117.266 271.314 115.95 272.688 115.335 274.441C114.718 276.191 114.852 278.176 115.688 279.919C116.524 281.663 117.988 283.01 119.739 283.625C121.491 284.242 123.386 284.076 125.027 283.204C125.027 283.204 125.027 283.204 125.027 283.204C126.855 282.243 128.605 281.199 130.288 280.117C159.592 260.317 179.123 229.817 186.777 196.955C187.201 195.124 187.581 193.316 187.935 191.457C188.053 190.831 187.912 190.172 187.558 189.628C187.202 189.083 186.663 188.698 186.042 188.554C185.422 188.41 184.768 188.518 184.209 188.851C183.651 189.183 183.234 189.713 183.065 190.327C183.065 190.327 183.065 190.327 183.065 190.327C182.579 192.087 182.07 193.792 181.521 195.514C171.756 226.309 150.345 253.378 123.389 268.455C121.907 269.245 120.405 269.977 118.973 270.58Z" fill="#5A3310"/>
<path d="M161.722 237.971C162.396 238.958 162.632 240.152 162.345 241.311C162.059 242.469 161.273 243.497 160.194 244.149C159.115 244.8 157.839 245.016 156.681 244.729C155.522 244.443 154.575 243.677 154.016 242.621C154.016 242.621 154.016 242.621 154.016 242.621C153.533 241.727 153.108 240.827 152.724 239.937C146.314 224.104 146.702 206.821 152.478 191.808C152.801 190.972 153.135 190.159 153.493 189.333C153.655 188.963 153.967 188.666 154.348 188.504C154.73 188.341 155.151 188.327 155.529 188.467C155.907 188.607 156.216 188.893 156.4 189.265C156.583 189.637 156.626 190.066 156.507 190.451C156.254 191.27 156.026 192.073 155.809 192.893C151.906 207.528 153.723 223.598 160.54 236.091C160.921 236.756 161.323 237.403 161.722 237.971Z" fill="#5A3310"/>
<path d="M151.637 257.321C150.431 257.215 149.2 257.579 148.205 258.392C147.211 259.203 146.535 260.397 146.336 261.651C146.136 262.906 146.432 264.1 147.168 264.91C147.903 265.724 149.018 266.088 150.258 265.982C150.258 265.982 150.258 265.982 150.258 265.982C150.712 265.936 151.26 265.901 151.832 265.864C162.31 265.811 175.081 260.246 180.91 251.223C181.25 250.748 181.577 250.267 181.902 249.768C182.122 249.425 182.197 249.017 182.128 248.644C182.058 248.27 181.85 247.961 181.532 247.775C181.213 247.59 180.807 247.539 180.385 247.626C179.963 247.713 179.561 247.93 179.282 248.238C179.282 248.238 179.282 248.238 179.282 248.238C178.913 248.647 178.545 249.034 178.171 249.411C171.305 256.581 162.091 258.779 153.319 257.482C152.787 257.428 152.261 257.368 151.637 257.321Z" fill="#5A3310"/>
<path d="M113.027 284.581C114.734 285.314 116.05 286.688 116.665 288.441C117.282 290.191 117.148 292.176 116.312 293.919C115.476 295.663 114.011 297.01 112.261 297.625C110.509 298.242 108.614 298.076 106.973 297.204C106.973 297.204 106.973 297.204 106.973 297.204C105.145 296.243 103.395 295.199 101.712 294.118C72.4076 274.317 52.8773 243.817 45.2233 210.955C44.7992 209.124 44.419 207.316 44.0646 205.457C43.9465 204.831 44.0876 204.172 44.4422 203.628C44.7976 203.083 45.3374 202.698 45.9576 202.554C46.5778 202.411 47.2318 202.518 47.7907 202.851C48.3487 203.183 48.7657 203.713 48.9353 204.327C48.9353 204.327 48.9353 204.327 48.9353 204.327C49.4207 206.087 49.9297 207.793 50.4793 209.514C60.244 240.309 81.6552 267.378 108.611 282.455C110.093 283.245 111.595 283.977 113.027 284.581Z" fill="#5A3310"/>
<path d="M58.5119 235.971C57.8376 236.958 57.6017 238.152 57.8892 239.311C58.1748 240.469 58.9603 241.497 60.0398 242.149C61.1192 242.8 62.3947 243.016 63.5523 242.729C64.7118 242.443 65.6586 241.677 66.2176 240.621C66.2176 240.621 66.2176 240.621 66.2176 240.621C66.7004 239.727 67.1254 238.827 67.5099 237.937C73.9194 222.104 73.5315 204.821 67.7558 189.808C67.4329 188.973 67.0984 188.159 66.7404 187.333C66.5788 186.963 66.2668 186.666 65.8854 186.504C65.5033 186.341 65.083 186.327 64.7047 186.467C64.3264 186.607 64.0176 186.893 63.8339 187.265C63.6509 187.637 63.6081 188.066 63.7271 188.452C63.9795 189.27 64.2081 190.073 64.4246 190.893C68.3279 205.528 66.5109 221.598 59.694 234.091C59.3132 234.756 58.9107 235.403 58.5119 235.971Z" fill="#5A3310"/>
<path d="M80.6952 266.785C81.9052 266.703 83.1394 267.086 84.1339 267.9C85.1279 268.711 85.8008 269.885 85.9968 271.116C86.1929 272.347 85.8939 273.521 85.158 274.332C84.4226 275.146 83.3106 275.529 82.0742 275.446C82.0742 275.446 82.0742 275.446 82.0742 275.446C81.4711 275.4 80.7741 275.37 80.048 275.335C66.8976 275.454 51.0737 268.812 43.4812 257.54C43.0431 256.947 42.6187 256.345 42.1974 255.72C41.9666 255.374 41.8814 254.963 41.947 254.585C42.0133 254.207 42.2252 253.892 42.5492 253.703C42.8733 253.514 43.287 253.463 43.7127 253.554C44.1377 253.646 44.5398 253.872 44.8172 254.19C44.8172 254.19 44.8172 254.19 44.8172 254.19C45.2832 254.725 45.748 255.233 46.2207 255.727C54.8497 265.146 67.1168 268.423 78.5612 266.953C79.247 266.896 79.9218 266.833 80.6952 266.785Z" fill="#5A3310"/>
<g filter="url(#filter0_d_4_589)">
<ellipse cx="82.6088" cy="194.484" rx="48.6947" ry="48.4012" transform="rotate(137.332 82.6088 194.484)" fill="#33803C"/>
</g>
<g filter="url(#filter1_d_4_589)">
<ellipse cx="154.013" cy="194.576" rx="48.6947" ry="48.4012" transform="rotate(137.332 154.013 194.576)" fill="#33803C"/>
</g>
<path d="M111.507 151.25C111.507 154.762 108.996 160.92 105.898 160.92C102.799 160.92 100.288 154.762 100.288 151.25C100.288 147.739 102.799 144.892 105.898 144.892C108.996 144.892 111.507 147.739 111.507 151.25Z" fill="#F5B5DC"/>
<path d="M119.188 160.594C116.684 162.944 110.263 165.159 107.76 162.81C105.256 160.46 107.617 154.435 110.121 152.085C112.625 149.735 116.684 149.735 119.188 152.085C121.691 154.435 121.691 158.244 119.188 160.594Z" fill="#F5B5DC"/>
<path d="M105.483 168.872C104.566 165.452 106.198 158.586 110.193 157.516C114.188 156.445 119.034 161.575 119.951 164.996C120.867 168.416 118.371 172.056 114.376 173.127C110.381 174.197 106.399 172.292 105.483 168.872Z" fill="#F5B5DC"/>
<path d="M107.6 168.872C108.516 165.452 106.885 158.586 102.889 157.516C98.8942 156.445 94.0483 161.575 93.1319 164.996C92.2155 168.416 94.7113 172.056 98.7065 173.127C102.702 174.197 106.683 172.292 107.6 168.872Z" fill="#F5B5DC"/>
<path d="M92.5333 160.594C95.0371 162.944 101.458 165.159 103.961 162.81C106.465 160.46 104.104 154.435 101.6 152.085C99.0964 149.735 95.0371 149.735 92.5333 152.085C90.0296 154.435 90.0296 158.244 92.5333 160.594Z" fill="#F5B5DC"/>
<path d="M171.507 181.25C171.507 184.762 168.996 190.92 165.898 190.92C162.799 190.92 160.288 184.762 160.288 181.25C160.288 177.739 162.799 174.892 165.898 174.892C168.996 174.892 171.507 177.739 171.507 181.25Z" fill="#F5B5DC"/>
<path d="M179.188 190.594C176.684 192.944 170.263 195.159 167.76 192.81C165.256 190.46 167.617 184.435 170.121 182.085C172.625 179.735 176.684 179.735 179.188 182.085C181.691 184.435 181.691 188.244 179.188 190.594Z" fill="#F5B5DC"/>
<path d="M165.483 198.872C164.566 195.452 166.198 188.586 170.193 187.516C174.188 186.445 179.034 191.575 179.951 194.996C180.867 198.416 178.371 202.056 174.376 203.127C170.381 204.197 166.399 202.292 165.483 198.872Z" fill="#F5B5DC"/>
<path d="M167.6 198.872C168.516 195.452 166.885 188.586 162.889 187.516C158.894 186.445 154.048 191.575 153.132 194.996C152.216 198.416 154.711 202.056 158.706 203.127C162.702 204.197 166.683 202.292 167.6 198.872Z" fill="#F5B5DC"/>
<path d="M152.533 190.594C155.037 192.944 161.458 195.159 163.961 192.81C166.465 190.46 164.104 184.435 161.6 182.085C159.096 179.735 155.037 179.735 152.533 182.085C150.03 184.435 150.03 188.244 152.533 190.594Z" fill="#F5B5DC"/>
<path d="M76.5074 197.25C76.5074 200.762 73.9958 206.92 70.8977 206.92C67.7995 206.92 65.2879 200.762 65.2879 197.25C65.2879 193.739 67.7995 190.892 70.8977 190.892C73.9958 190.892 76.5074 193.739 76.5074 197.25Z" fill="#F5B5DC"/>
<path d="M84.1876 206.594C81.6839 208.944 75.2634 211.159 72.7597 208.81C70.256 206.46 72.6172 200.435 75.1209 198.085C77.6246 195.735 81.6839 195.735 84.1876 198.085C86.6913 200.435 86.6913 204.244 84.1876 206.594Z" fill="#F5B5DC"/>
<path d="M70.4829 214.872C69.5665 211.452 71.198 204.586 75.1932 203.516C79.1884 202.445 84.0342 207.575 84.9507 210.996C85.8671 214.416 83.3713 218.056 79.3761 219.127C75.3809 220.197 71.3993 218.292 70.4829 214.872Z" fill="#F5B5DC"/>
<path d="M72.5997 214.872C73.5161 211.452 71.8845 204.586 67.8894 203.516C63.8942 202.445 59.0483 207.575 58.1319 210.996C57.2155 214.416 59.7113 218.056 63.7065 219.127C67.7016 220.197 71.6833 218.292 72.5997 214.872Z" fill="#F5B5DC"/>
<path d="M57.5333 206.594C60.0371 208.944 66.4575 211.159 68.9612 208.81C71.4649 206.46 69.1038 200.435 66.6001 198.085C64.0964 195.735 60.0371 195.735 57.5333 198.085C55.0296 200.435 55.0296 204.244 57.5333 206.594Z" fill="#F5B5DC"/>
<path d="M171.507 261.25C171.507 264.762 168.996 270.92 165.898 270.92C162.799 270.92 160.288 264.762 160.288 261.25C160.288 257.739 162.799 254.892 165.898 254.892C168.996 254.892 171.507 257.739 171.507 261.25Z" fill="#F5B5DC"/>
<path d="M179.188 270.594C176.684 272.944 170.263 275.159 167.76 272.81C165.256 270.46 167.617 264.435 170.121 262.085C172.625 259.735 176.684 259.735 179.188 262.085C181.691 264.435 181.691 268.244 179.188 270.594Z" fill="#F5B5DC"/>
<path d="M165.483 278.872C164.566 275.452 166.198 268.586 170.193 267.516C174.188 266.445 179.034 271.575 179.951 274.996C180.867 278.416 178.371 282.056 174.376 283.127C170.381 284.197 166.399 282.292 165.483 278.872Z" fill="#F5B5DC"/>
<path d="M167.6 278.872C168.516 275.452 166.885 268.586 162.889 267.516C158.894 266.445 154.048 271.575 153.132 274.996C152.216 278.416 154.711 282.056 158.706 283.127C162.702 284.197 166.683 282.292 167.6 278.872Z" fill="#F5B5DC"/>
<path d="M152.533 270.594C155.037 272.944 161.458 275.159 163.961 272.81C166.465 270.46 164.104 264.435 161.6 262.085C159.096 259.735 155.037 259.735 152.533 262.085C150.03 264.435 150.03 268.244 152.533 270.594Z" fill="#F5B5DC"/>
<circle cx="197" cy="231.892" r="6" fill="#F5B5DC"/>
<circle cx="40" cy="236.892" r="6" fill="#F5B5DC"/>
<defs>
<filter id="filter0_d_4_589" x="30.0484" y="145.948" width="105.121" height="110.073" filterUnits="userSpaceOnUse" color-interpolation-filters="sRGB">
<feFlood flood-opacity="0" result="BackgroundImageFix"/>
<feColorMatrix in="SourceAlpha" type="matrix" values="0 0 0 0 0 0 0 0 0 0 0 0 0 0 0 0 0 0 127 0" result="hardAlpha"/>
<feOffset dy="9"/>
<feGaussianBlur stdDeviation="2"/>
<feComposite in2="hardAlpha" operator="out"/>
<feColorMatrix type="matrix" values="0 0 0 0 0.0526322 0 0 0 0 0.3625 0 0 0 0 0.336677 0 0 0 0.25 0"/>
<feBlend mode="normal" in2="BackgroundImageFix" result="effect1_dropShadow_4_589"/>
<feBlend mode="normal" in="SourceGraphic" in2="effect1_dropShadow_4_589" result="shape"/>
</filter>
<filter id="filter1_d_4_589" x="101.453" y="146.039" width="105.121" height="110.073" filterUnits="userSpaceOnUse" color-interpolation-filters="sRGB">
<feFlood flood-opacity="0" result="BackgroundImageFix"/>
<feColorMatrix in="SourceAlpha" type="matrix" values="0 0 0 0 0 0 0 0 0 0 0 0 0 0 0 0 0 0 127 0" result="hardAlpha"/>
<feOffset dy="9"/>
<feGaussianBlur stdDeviation="2"/>
<feComposite in2="hardAlpha" operator="out"/>
<feColorMatrix type="matrix" values="0 0 0 0 0.0526322 0 0 0 0 0.3625 0 0 0 0 0.336677 0 0 0 0.25 0"/>
<feBlend mode="normal" in2="BackgroundImageFix" result="effect1_dropShadow_4_589"/>
<feBlend mode="normal" in="SourceGraphic" in2="effect1_dropShadow_4_589" result="shape"/>
</filter>
</defs>
</svg>
