<svg width="235" height="360" viewBox="0 0 235 360" fill="none" xmlns="http://www.w3.org/2000/svg">
<path d="M88.6697 308.968C88.2295 305.518 88.7447 301.887 91.6782 300.019C95.4087 297.643 102.759 295 117 295C131.241 295 138.591 297.643 142.322 300.019C145.255 301.887 145.771 305.518 145.33 308.968L139.73 352.866C139.73 352.866 139.73 360 117 360C94.2703 360 94.2703 352.866 94.2703 352.866L88.6697 308.968Z" fill="#7D664F"/>
<ellipse cx="117.5" cy="305" rx="25.5" ry="8" fill="#33281E"/>
<path d="M127.875 303.453C128.086 305.58 126.588 307.507 124.459 307.697C122.247 307.894 119.913 308 117.5 308C114.951 308 112.488 307.883 110.166 307.664C108.056 307.465 106.573 305.559 106.768 303.45L109.337 275.632C109.527 273.574 111.254 272 113.32 272H121.133C123.189 272 124.91 273.559 125.113 275.605L127.875 303.453Z" fill="#5A3310"/>
<path d="M116.242 257.625C114.542 258.384 113.266 259.771 112.729 261.55C112.19 263.325 112.434 265.346 113.373 267.099C114.312 268.853 115.857 270.178 117.633 270.714C119.411 271.254 121.274 270.961 122.848 269.968C122.848 269.968 122.848 269.968 122.848 269.968C123.995 269.268 125.022 268.547 126.026 267.79C142.903 254.263 152.284 235.25 155.734 215.798C155.921 214.715 156.087 213.644 156.238 212.546C156.321 211.932 156.146 211.29 155.776 210.767C155.405 210.244 154.871 209.882 154.265 209.756C153.659 209.63 153.024 209.749 152.476 210.081C151.928 210.413 151.512 210.932 151.343 211.528C151.343 211.528 151.343 211.528 151.343 211.528C151.056 212.538 150.758 213.519 150.44 214.504C144.818 232.107 133.105 248.017 118.522 256.507C117.728 256.946 116.952 257.329 116.242 257.625Z" fill="#5A3310"/>
<path d="M142.552 239.487C143.237 240.518 143.501 241.753 143.229 242.954C142.961 244.153 142.18 245.219 141.113 245.884C140.047 246.549 138.797 246.749 137.695 246.405C136.589 246.062 135.721 245.205 135.226 244.054C135.226 244.054 135.226 244.054 135.226 244.054C134.939 243.426 134.702 242.819 134.489 242.22C131.066 231.783 131.837 221.222 135.295 212.274C135.489 211.778 135.689 211.295 135.902 210.805C136.061 210.445 136.362 210.165 136.719 210.017C137.078 209.871 137.464 209.869 137.812 210.021C138.16 210.173 138.447 210.469 138.629 210.853C138.811 211.236 138.873 211.675 138.782 212.065C138.782 212.065 138.782 212.065 138.782 212.065C138.669 212.552 138.569 213.03 138.476 213.516C136.778 222.169 138.141 231.635 141.933 238.525C142.14 238.882 142.353 239.217 142.552 239.487Z" fill="#5A3310"/>
<path d="M131.222 251.368C130.038 251.278 128.922 251.677 128.123 252.531C127.323 253.381 126.905 254.617 126.958 255.912C127.011 257.208 127.531 258.444 128.401 259.294C129.271 260.148 130.42 260.547 131.597 260.457C131.597 260.457 131.597 260.457 131.597 260.457C132.078 260.408 132.743 260.387 133.419 260.353C147.361 260.59 157.205 248.828 161.241 238.108C161.489 237.506 161.733 236.889 161.975 236.255C162.113 235.887 162.096 235.456 161.943 235.065C161.789 234.674 161.511 234.355 161.156 234.171C160.8 233.987 160.39 233.95 160.003 234.061C159.616 234.172 159.282 234.422 159.089 234.763C159.089 234.763 159.089 234.763 159.089 234.763C158.774 235.325 158.457 235.868 158.139 236.392C152.493 246.12 143.459 253.386 133.246 251.559C132.637 251.498 132.03 251.42 131.222 251.368Z" fill="#5A3310"/>
<path d="M116.376 266.051C118.076 266.81 119.352 268.197 119.889 269.976C120.428 271.751 120.183 273.772 119.245 275.525C118.306 277.279 116.761 278.604 114.985 279.14C113.207 279.68 111.344 279.387 109.77 278.394C109.77 278.394 109.77 278.394 109.77 278.394C108.623 277.694 107.596 276.973 106.592 276.216C89.7153 262.689 80.3335 243.676 76.8842 224.224C76.6968 223.142 76.5313 222.07 76.3796 220.972C76.2971 220.358 76.4723 219.716 76.8416 219.193C77.2125 218.67 77.7472 218.308 78.353 218.182C78.9589 218.056 79.5936 218.175 80.1422 218.507C80.6895 218.839 81.1059 219.358 81.2749 219.954C81.2749 219.954 81.2749 219.954 81.2749 219.954C81.5616 220.964 81.8603 221.945 82.1783 222.93C87.7998 240.533 99.5129 256.443 114.096 264.933C114.89 265.372 115.666 265.755 116.376 266.051Z" fill="#5A3310"/>
<path d="M83.7204 238.283C83.0351 239.315 82.7716 240.55 83.043 241.75C83.3112 242.949 84.0921 244.016 85.1589 244.681C86.2257 245.346 87.4753 245.545 88.5777 245.201C89.6834 244.859 90.5515 244.001 91.046 242.851C91.046 242.851 91.046 242.851 91.046 242.851C91.3329 242.222 91.5702 241.616 91.7838 241.017C95.2067 230.579 94.435 220.019 90.977 211.071C90.783 210.574 90.5829 210.091 90.3706 209.602C90.2118 209.241 89.9106 208.961 89.5528 208.814C89.194 208.667 88.808 208.665 88.4601 208.817C88.1122 208.97 87.8253 209.266 87.6429 209.649C87.4616 210.033 87.3997 210.472 87.4904 210.862C87.4904 210.862 87.4904 210.862 87.4904 210.862C87.603 211.349 87.703 211.827 87.7964 212.313C89.4941 220.965 88.1316 230.432 84.339 237.321C84.1321 237.678 83.9189 238.014 83.7204 238.283Z" fill="#5A3310"/>
<path d="M101.396 259.794C102.58 259.704 103.696 260.103 104.495 260.957C105.295 261.807 105.713 263.043 105.66 264.339C105.607 265.634 105.087 266.87 104.217 267.72C103.347 268.574 102.198 268.973 101.021 268.883C101.021 268.883 101.021 268.883 101.021 268.883C100.54 268.834 99.8752 268.813 99.1994 268.779C85.2568 269.017 75.4134 257.254 71.3766 246.534C71.1291 245.932 70.8846 245.315 70.6433 244.681C70.5047 244.313 70.5215 243.882 70.6747 243.491C70.8287 243.1 71.1065 242.781 71.4624 242.597C71.8182 242.413 72.2274 242.376 72.6153 242.487C73.0024 242.598 73.3364 242.848 73.5285 243.189C73.5285 243.189 73.5285 243.189 73.5285 243.189C73.8439 243.751 74.1607 244.294 74.4785 244.818C80.1248 254.546 89.1591 261.812 99.372 259.985C99.9814 259.924 100.588 259.846 101.396 259.794Z" fill="#5A3310"/>
<path d="M108.583 151.344C112.974 145.266 122.026 145.266 126.417 151.344L156.463 192.938C172.554 215.213 178.969 245.685 159.964 265.532C149.917 276.025 136.03 284.712 117.5 284.993C98.5739 285.28 84.4913 276.341 74.3966 265.481C55.8359 245.512 62.3487 215.348 78.3128 193.248L108.583 151.344Z" fill="#33803C"/>
</svg>
