<svg width="235" height="360" viewBox="0 0 235 360" fill="none" xmlns="http://www.w3.org/2000/svg">
<ellipse cx="122.169" cy="196.06" rx="59.3055" ry="68.3597" fill="#F5B5DC"/>
<ellipse cx="79.6139" cy="230.111" rx="59.3055" ry="66.0962" fill="#F5B5DC"/>
<ellipse cx="172.873" cy="225.033" rx="44.8186" ry="52.062" fill="#F5B5DC"/>
<ellipse cx="149.275" cy="258.848" rx="40.429" ry="52.062" transform="rotate(116.722 149.275 258.848)" fill="#F5B5DC"/>
<ellipse cx="88.6113" cy="185.411" rx="36.0199" ry="46.3843" transform="rotate(137.332 88.6113 185.411)" fill="#F5B5DC"/>
<path d="M107.409 173.405C107.409 173.405 108.409 168.892 116.909 168.892C125.409 168.892 125.409 173.405 125.409 173.405L135 349.512C135 349.512 135 359.892 118 359.892C101 359.892 101 349.512 101 349.512L107.409 173.405Z" fill="#5A3310"/>
<path d="M118.973 270.58C117.266 271.314 115.95 272.688 115.335 274.441C114.718 276.191 114.852 278.176 115.688 279.919C116.524 281.663 117.989 283.01 119.739 283.625C121.491 284.242 123.386 284.076 125.027 283.204C125.027 283.204 125.027 283.204 125.027 283.204C126.855 282.243 128.605 281.199 130.288 280.117C159.592 260.317 179.123 229.817 186.777 196.955C187.201 195.124 187.581 193.316 187.935 191.457C188.054 190.831 187.912 190.172 187.558 189.628C187.202 189.083 186.663 188.698 186.042 188.554C185.422 188.41 184.768 188.518 184.209 188.851C183.651 189.183 183.234 189.713 183.065 190.327C183.065 190.327 183.065 190.327 183.065 190.327C182.579 192.087 182.07 193.792 181.521 195.514C171.756 226.309 150.345 253.378 123.389 268.455C121.907 269.245 120.405 269.977 118.973 270.58Z" fill="#5A3310"/>
<path d="M161.722 237.971C162.396 238.958 162.632 240.152 162.345 241.311C162.059 242.469 161.273 243.497 160.194 244.149C159.115 244.8 157.839 245.016 156.681 244.729C155.522 244.443 154.575 243.677 154.016 242.621C154.016 242.621 154.016 242.621 154.016 242.621C153.533 241.727 153.108 240.827 152.724 239.937C146.314 224.104 146.702 206.821 152.478 191.808C152.801 190.972 153.135 190.159 153.493 189.333C153.655 188.963 153.967 188.666 154.348 188.504C154.73 188.341 155.151 188.327 155.529 188.467C155.907 188.607 156.216 188.893 156.4 189.265C156.583 189.637 156.626 190.066 156.507 190.451C156.254 191.27 156.026 192.073 155.809 192.893C151.906 207.528 153.723 223.598 160.54 236.091C160.921 236.756 161.323 237.403 161.722 237.971Z" fill="#5A3310"/>
<path d="M151.637 257.321C150.431 257.215 149.2 257.579 148.205 258.392C147.211 259.203 146.535 260.397 146.336 261.651C146.136 262.906 146.432 264.1 147.168 264.91C147.903 265.724 149.018 266.088 150.258 265.982C150.258 265.982 150.258 265.982 150.258 265.982C150.712 265.936 151.26 265.901 151.832 265.864C162.31 265.811 175.081 260.246 180.91 251.223C181.25 250.748 181.577 250.267 181.902 249.768C182.122 249.425 182.197 249.017 182.128 248.644C182.058 248.27 181.85 247.961 181.532 247.775C181.213 247.59 180.807 247.539 180.385 247.626C179.963 247.713 179.561 247.93 179.282 248.238C179.282 248.238 179.282 248.238 179.282 248.238C178.913 248.647 178.545 249.034 178.171 249.411C171.305 256.581 162.091 258.779 153.319 257.482C152.787 257.428 152.261 257.368 151.637 257.321Z" fill="#5A3310"/>
<path d="M113.027 284.581C114.734 285.314 116.05 286.688 116.665 288.441C117.282 290.191 117.148 292.176 116.312 293.919C115.476 295.663 114.011 297.01 112.261 297.625C110.509 298.242 108.614 298.076 106.973 297.204C106.973 297.204 106.973 297.204 106.973 297.204C105.145 296.243 103.395 295.199 101.712 294.118C72.4076 274.317 52.8773 243.817 45.2234 210.955C44.7992 209.124 44.419 207.316 44.0647 205.457C43.9465 204.831 44.0876 204.172 44.4422 203.628C44.7976 203.083 45.3374 202.698 45.9576 202.554C46.5778 202.411 47.2319 202.518 47.7907 202.851C48.3487 203.183 48.7657 203.713 48.9353 204.327C48.9353 204.327 48.9353 204.327 48.9353 204.327C49.4207 206.087 49.9298 207.793 50.4793 209.514C60.244 240.309 81.6552 267.378 108.611 282.455C110.093 283.245 111.595 283.977 113.027 284.581Z" fill="#5A3310"/>
<path d="M58.5119 235.971C57.8376 236.958 57.6017 238.152 57.8892 239.311C58.1748 240.469 58.9603 241.497 60.0398 242.149C61.1192 242.8 62.3947 243.016 63.5523 242.729C64.7118 242.443 65.6586 241.677 66.2176 240.621C66.2176 240.621 66.2176 240.621 66.2176 240.621C66.7004 239.727 67.1254 238.827 67.5099 237.937C73.9194 222.104 73.5315 204.821 67.7558 189.808C67.4329 188.973 67.0984 188.159 66.7404 187.333C66.5788 186.963 66.2668 186.666 65.8854 186.504C65.5033 186.341 65.083 186.327 64.7047 186.467C64.3264 186.607 64.0176 186.893 63.8339 187.265C63.6509 187.637 63.6081 188.066 63.7271 188.452C63.9795 189.27 64.2081 190.073 64.4246 190.893C68.3279 205.528 66.5109 221.598 59.694 234.091C59.3132 234.756 58.9107 235.403 58.5119 235.971Z" fill="#5A3310"/>
<path d="M80.6953 266.785C81.9053 266.703 83.1395 267.086 84.134 267.9C85.128 268.711 85.8008 269.885 85.9969 271.116C86.1929 272.347 85.8939 273.521 85.1581 274.332C84.4227 275.146 83.3107 275.529 82.0743 275.446C82.0743 275.446 82.0743 275.446 82.0743 275.446C81.4711 275.4 80.7742 275.37 80.0481 275.335C66.8976 275.454 51.0738 268.812 43.4812 257.54C43.0432 256.947 42.6187 256.345 42.1974 255.72C41.9667 255.374 41.8814 254.963 41.947 254.585C42.0134 254.207 42.2252 253.892 42.5493 253.703C42.8734 253.514 43.2871 253.463 43.7128 253.554C44.1377 253.646 44.5398 253.872 44.8173 254.19C44.8173 254.19 44.8173 254.19 44.8173 254.19C45.2833 254.725 45.7481 255.233 46.2208 255.727C54.8498 265.146 67.1169 268.423 78.5613 266.953C79.2471 266.896 79.9219 266.833 80.6953 266.785Z" fill="#5A3310"/>
<g filter="url(#filter0_d_6_990)">
<ellipse cx="82.6088" cy="194.484" rx="48.6947" ry="48.4012" transform="rotate(137.332 82.6088 194.484)" fill="#F5B5DC"/>
</g>
<g filter="url(#filter1_d_6_990)">
<ellipse cx="154.013" cy="194.576" rx="48.6947" ry="48.4012" transform="rotate(137.332 154.013 194.576)" fill="#F5B5DC"/>
</g>
<defs>
<filter id="filter0_d_6_990" x="30.0484" y="145.948" width="105.121" height="110.073" filterUnits="userSpaceOnUse" color-interpolation-filters="sRGB">
<feFlood flood-opacity="0" result="BackgroundImageFix"/>
<feColorMatrix in="SourceAlpha" type="matrix" values="0 0 0 0 0 0 0 0 0 0 0 0 0 0 0 0 0 0 127 0" result="hardAlpha"/>
<feOffset dy="9"/>
<feGaussianBlur stdDeviation="2"/>
<feComposite in2="hardAlpha" operator="out"/>
<feColorMatrix type="matrix" values="0 0 0 0 0.965385 0 0 0 0 0.396365 0 0 0 0 0.718809 0 0 0 0.25 0"/>
<feBlend mode="normal" in2="BackgroundImageFix" result="effect1_dropShadow_6_990"/>
<feBlend mode="normal" in="SourceGraphic" in2="effect1_dropShadow_6_990" result="shape"/>
</filter>
<filter id="filter1_d_6_990" x="101.453" y="146.039" width="105.121" height="110.073" filterUnits="userSpaceOnUse" color-interpolation-filters="sRGB">
<feFlood flood-opacity="0" result="BackgroundImageFix"/>
<feColorMatrix in="SourceAlpha" type="matrix" values="0 0 0 0 0 0 0 0 0 0 0 0 0 0 0 0 0 0 127 0" result="hardAlpha"/>
<feOffset dy="9"/>
<feGaussianBlur stdDeviation="2"/>
<feComposite in2="hardAlpha" operator="out"/>
<feColorMatrix type="matrix" values="0 0 0 0 0.965385 0 0 0 0 0.396365 0 0 0 0 0.718809 0 0 0 0.25 0"/>
<feBlend mode="normal" in2="BackgroundImageFix" result="effect1_dropShadow_6_990"/>
<feBlend mode="normal" in="SourceGraphic" in2="effect1_dropShadow_6_990" result="shape"/>
</filter>
</defs>
</svg>
