<svg width="235" height="360" viewBox="0 0 235 360" fill="none" xmlns="http://www.w3.org/2000/svg">
<path d="M90.6697 308.86C90.2295 305.41 90.7447 301.78 93.6782 299.911C97.4087 297.536 104.759 294.892 119 294.892C133.241 294.892 140.591 297.536 144.322 299.911C147.255 301.78 147.771 305.41 147.33 308.86L141.73 352.758C141.73 352.758 141.73 359.892 119 359.892C96.2703 359.892 96.2703 352.758 96.2703 352.758L90.6697 308.86Z" fill="#7D664F"/>
<ellipse cx="119.5" cy="304.892" rx="25.5" ry="8" fill="#33281E"/>
<ellipse cx="117.5" cy="217.392" rx="54.5" ry="62.5" fill="#F5B5DC"/>
<ellipse cx="87.5" cy="247.892" rx="37.5" ry="41" fill="#F5B5DC"/>
<ellipse cx="150.5" cy="247.892" rx="37.5" ry="41" fill="#F5B5DC"/>
<path fill-rule="evenodd" clip-rule="evenodd" d="M117.291 200.546C122.149 200.546 122.148 203.404 122.148 203.404L129.535 304.385C129.687 306.463 128.219 308.32 126.145 308.525C123.732 308.763 121.164 308.892 118.5 308.892C115.228 308.892 112.099 308.697 109.225 308.344C107.218 308.098 105.813 306.297 105.931 304.278L111.861 203.404C111.861 203.404 112.433 200.546 117.291 200.546Z" fill="#5A3310"/>
<path d="M117.135 262.391C115.403 263.073 114.066 264.401 113.451 266.155C112.834 267.904 112.99 269.935 113.851 271.73C114.712 273.525 116.198 274.918 117.948 275.532C119.7 276.15 121.574 275.939 123.189 275.015C123.189 275.015 123.189 275.015 123.189 275.015C124.319 274.389 125.373 273.726 126.377 273.045C143.628 260.717 154.387 242.55 158.31 223.326C158.525 222.256 158.715 221.201 158.889 220.117C158.985 219.506 158.824 218.861 158.467 218.33C158.108 217.798 157.582 217.425 156.98 217.285C156.378 217.145 155.741 217.249 155.185 217.568C154.63 217.888 154.202 218.396 154.019 218.987C154.019 218.987 154.019 218.987 154.019 218.987C153.713 219.972 153.395 220.925 153.054 221.885C147.021 239.042 134.381 253.778 119.478 261.382C118.674 261.771 117.869 262.123 117.135 262.391Z" fill="#5A3310"/>
<path d="M116.331 270.393C118.063 271.074 119.401 272.403 120.016 274.156C120.633 275.905 120.477 277.936 119.616 279.731C118.755 281.527 117.269 282.92 115.519 283.533C113.766 284.151 111.893 283.94 110.277 283.016C110.277 283.016 110.277 283.016 110.277 283.016C109.147 282.39 108.094 281.727 107.089 281.046C89.8382 268.718 79.0792 250.551 75.157 231.327C74.9415 230.257 74.7518 229.202 74.5773 228.119C74.4814 227.507 74.6424 226.862 74.9998 226.331C75.3585 225.8 75.8844 225.426 76.4866 225.286C77.0889 225.146 77.7256 225.251 78.2817 225.57C78.8363 225.889 79.2649 226.397 79.448 226.989C79.448 226.989 79.448 226.989 79.448 226.989C79.7535 227.973 80.072 228.926 80.413 229.886C86.4459 247.043 99.0858 261.779 113.988 269.384C114.792 269.773 115.598 270.124 116.331 270.393Z" fill="#5A3310"/>
</svg>
