<svg width="235" height="360" viewBox="0 0 235 360" fill="none" xmlns="http://www.w3.org/2000/svg">
<path d="M112.264 273.935C112.264 273.935 112.803 270.926 117.388 270.926C121.972 270.926 121.972 273.935 121.972 273.935L129.792 352.778C129.792 352.778 129.792 359.699 117.388 359.699C104.984 359.699 104.984 352.778 104.984 352.778L112.264 273.935Z" fill="#5A3310"/>
<path d="M116.242 287.625C114.542 288.384 113.266 289.771 112.729 291.55C112.19 293.325 112.434 295.346 113.373 297.099C114.312 298.853 115.857 300.178 117.633 300.714C119.411 301.254 121.274 300.961 122.848 299.968C122.848 299.968 122.848 299.968 122.848 299.968C123.995 299.268 125.022 298.547 126.026 297.79C142.903 284.263 152.284 265.25 155.734 245.798C155.921 244.716 156.087 243.644 156.238 242.546C156.321 241.932 156.146 241.29 155.776 240.767C155.405 240.244 154.871 239.882 154.265 239.756C153.659 239.63 153.024 239.749 152.476 240.081C151.928 240.414 151.512 240.932 151.343 241.528C151.343 241.528 151.343 241.528 151.343 241.528C151.056 242.538 150.758 243.519 150.44 244.504C144.818 262.107 133.105 278.017 118.522 286.507C117.728 286.946 116.952 287.329 116.242 287.625Z" fill="#5A3310"/>
<path d="M142.552 269.487C143.237 270.519 143.501 271.753 143.229 272.954C142.961 274.153 142.18 275.219 141.113 275.884C140.047 276.549 138.797 276.749 137.695 276.405C136.589 276.063 135.721 275.205 135.226 274.054C135.226 274.054 135.226 274.054 135.226 274.054C134.939 273.426 134.702 272.819 134.489 272.22C131.066 261.783 131.837 251.222 135.295 242.274C135.489 241.778 135.689 241.295 135.902 240.805C136.061 240.445 136.362 240.165 136.719 240.017C137.078 239.871 137.464 239.869 137.812 240.021C138.16 240.173 138.447 240.469 138.629 240.853C138.811 241.236 138.873 241.675 138.782 242.065C138.782 242.065 138.782 242.065 138.782 242.065C138.669 242.553 138.569 243.03 138.476 243.516C136.778 252.169 138.141 261.635 141.933 268.525C142.14 268.882 142.353 269.217 142.552 269.487Z" fill="#5A3310"/>
<path d="M131.222 281.368C130.038 281.278 128.922 281.677 128.123 282.531C127.323 283.381 126.905 284.617 126.958 285.912C127.011 287.208 127.531 288.444 128.401 289.294C129.271 290.148 130.42 290.547 131.597 290.457C131.597 290.457 131.597 290.457 131.597 290.457C132.078 290.408 132.743 290.387 133.419 290.353C147.361 290.59 157.205 278.828 161.241 268.108C161.489 267.506 161.733 266.889 161.975 266.255C162.113 265.887 162.096 265.456 161.943 265.065C161.789 264.674 161.511 264.355 161.156 264.171C160.8 263.987 160.39 263.95 160.003 264.061C159.616 264.172 159.282 264.422 159.089 264.763C159.089 264.763 159.089 264.763 159.089 264.763C158.774 265.325 158.457 265.868 158.139 266.392C152.493 276.12 143.459 283.386 133.246 281.559C132.637 281.498 132.03 281.42 131.222 281.368Z" fill="#5A3310"/>
<path d="M116.376 296.051C118.076 296.81 119.352 298.197 119.889 299.976C120.428 301.751 120.183 303.772 119.245 305.525C118.306 307.279 116.761 308.604 114.985 309.14C113.207 309.68 111.344 309.387 109.77 308.394C109.77 308.394 109.77 308.394 109.77 308.394C108.623 307.694 107.596 306.973 106.592 306.216C89.7153 292.689 80.3335 273.676 76.8842 254.224C76.6968 253.142 76.5313 252.07 76.3796 250.972C76.2971 250.358 76.4723 249.716 76.8416 249.193C77.2125 248.67 77.7472 248.308 78.353 248.182C78.9589 248.056 79.5936 248.175 80.1422 248.507C80.6895 248.84 81.1059 249.358 81.2749 249.954C81.2749 249.954 81.2749 249.954 81.2749 249.954C81.5616 250.964 81.8603 251.945 82.1783 252.93C87.7998 270.533 99.5129 286.444 114.096 294.933C114.89 295.372 115.666 295.755 116.376 296.051Z" fill="#5A3310"/>
<path d="M83.7204 268.283C83.0351 269.315 82.7716 270.55 83.043 271.75C83.3112 272.949 84.0921 274.015 85.1589 274.681C86.2257 275.346 87.4753 275.545 88.5777 275.201C89.6834 274.859 90.5515 274.001 91.046 272.851C91.046 272.851 91.046 272.851 91.046 272.851C91.3329 272.222 91.5702 271.616 91.7838 271.016C95.2067 260.579 94.435 250.019 90.977 241.071C90.783 240.574 90.5829 240.091 90.3706 239.602C90.2118 239.241 89.9106 238.961 89.5528 238.814C89.194 238.667 88.808 238.665 88.4601 238.817C88.1122 238.97 87.8253 239.266 87.6429 239.649C87.4616 240.033 87.3997 240.472 87.4904 240.862C87.4904 240.862 87.4904 240.862 87.4904 240.862C87.603 241.349 87.703 241.827 87.7964 242.313C89.4941 250.965 88.1316 260.431 84.339 267.321C84.1321 267.678 83.9189 268.014 83.7204 268.283Z" fill="#5A3310"/>
<path d="M101.396 289.794C102.58 289.704 103.696 290.103 104.495 290.957C105.295 291.807 105.713 293.043 105.66 294.339C105.607 295.634 105.087 296.87 104.217 297.72C103.347 298.574 102.198 298.973 101.021 298.883C101.021 298.883 101.021 298.883 101.021 298.883C100.54 298.834 99.8752 298.813 99.1994 298.779C85.2568 299.017 75.4134 287.254 71.3766 276.534C71.1291 275.932 70.8846 275.315 70.6433 274.681C70.5047 274.313 70.5215 273.882 70.6747 273.491C70.8287 273.1 71.1065 272.781 71.4624 272.597C71.8182 272.413 72.2274 272.376 72.6153 272.487C73.0024 272.598 73.3364 272.848 73.5285 273.189C73.5285 273.189 73.5285 273.189 73.5285 273.189C73.8439 273.751 74.1607 274.294 74.4785 274.818C80.1248 284.546 89.1591 291.812 99.372 289.985C99.9814 289.924 100.588 289.846 101.396 289.794Z" fill="#5A3310"/>
<path d="M108.583 181.344C112.974 175.266 122.026 175.266 126.417 181.344L156.463 222.938C172.554 245.213 178.969 275.685 159.964 295.532C149.917 306.025 136.03 314.712 117.5 314.993C98.5739 315.28 84.4913 306.341 74.3966 295.481C55.8359 275.512 62.3487 245.348 78.3128 223.248L108.583 181.344Z" fill="#33803C"/>
</svg>
