<svg width="235" height="361" viewBox="0 0 235 361" fill="none" xmlns="http://www.w3.org/2000/svg">
<path d="M195.423 165.359C192.136 167.301 187.927 166.261 186.021 163.035C184.115 159.81 185.234 155.621 188.52 153.678C193.621 150.664 202.78 153.132 202.78 153.132C202.78 153.132 200.523 162.345 195.423 165.359Z" fill="#33803C"/>
<path d="M189.027 152.765C190.936 156.071 189.853 160.269 186.608 162.143C183.364 164.016 179.186 162.854 177.277 159.548C174.315 154.418 176.875 145.284 176.875 145.284C176.875 145.284 186.065 147.634 189.027 152.765Z" fill="#33803C"/>
<path d="M205.211 202.508C203.327 205.828 199.158 207.02 195.9 205.17C192.641 203.321 191.528 199.13 193.412 195.81C196.337 190.658 205.509 188.241 205.509 188.241C205.509 188.241 208.136 197.356 205.211 202.508Z" fill="#33803C"/>
<path d="M149.669 176.907C152.97 178.825 154.12 183.006 152.237 186.245C150.355 189.485 146.153 190.556 142.853 188.638C137.73 185.661 135.406 176.465 135.406 176.465C135.406 176.465 144.547 173.931 149.669 176.907Z" fill="#33803C"/>
<path d="M44.6715 170.2C47.9721 172.118 49.1218 176.299 47.2395 179.538C45.3571 182.777 41.1554 183.849 37.8548 181.931C32.7323 178.954 30.4084 169.758 30.4084 169.758C30.4084 169.758 39.549 167.223 44.6715 170.2Z" fill="#33803C"/>
<path d="M39.292 232.298C43.0296 231.522 46.6773 233.866 47.4394 237.534C48.2015 241.202 45.7893 244.806 42.0517 245.582C36.251 246.787 28.3799 241.494 28.3799 241.494C28.3799 241.494 33.4913 233.503 39.292 232.298Z" fill="#33803C"/>
<path d="M88.6645 234.102C87.1256 237.596 83.0986 239.203 79.6699 237.693C76.2413 236.183 74.7093 232.126 76.2483 228.633C78.6367 223.211 87.5175 219.878 87.5175 219.878C87.5175 219.878 91.0529 228.681 88.6645 234.102Z" fill="#33803C"/>
<path d="M132.22 126.548C128.603 127.771 124.699 125.885 123.499 122.336C122.299 118.786 124.258 114.918 127.874 113.695C133.487 111.798 141.94 116.101 141.94 116.101C141.94 116.101 137.832 124.651 132.22 126.548Z" fill="#33803C"/>
<path d="M128.558 112.906C129.744 116.534 127.819 120.419 124.258 121.583C120.696 122.747 116.848 120.749 115.662 117.121C113.822 111.49 118.21 103.08 118.21 103.08C118.21 103.08 126.718 107.274 128.558 112.906Z" fill="#33803C"/>
<path d="M108.5 124.392C108.5 124.392 109.5 119.392 118 119.392C126.5 119.392 126.5 124.392 126.5 124.392L141 348.784C141 348.784 141 360.284 118 360.284C95 360.284 95 348.784 95 348.784L108.5 124.392Z" fill="#5A3310"/>
<path d="M118.973 244.473C117.266 245.206 115.95 246.58 115.335 248.333C114.718 250.083 114.852 252.068 115.688 253.811C116.524 255.555 117.988 256.902 119.739 257.517C121.491 258.134 123.386 257.968 125.027 257.096C125.027 257.096 125.027 257.096 125.027 257.096C126.855 256.135 128.605 255.091 130.288 254.01C159.592 234.21 179.123 203.709 186.777 170.847C187.201 169.016 187.581 167.208 187.935 165.349C188.053 164.723 187.912 164.064 187.558 163.52C187.202 162.975 186.663 162.591 186.042 162.447C185.422 162.303 184.768 162.411 184.209 162.743C183.651 163.075 183.234 163.605 183.065 164.219C183.065 164.219 183.065 164.219 183.065 164.219C182.579 165.979 182.07 167.685 181.521 169.406C171.756 200.201 150.345 227.271 123.389 242.347C121.907 243.137 120.405 243.869 118.973 244.473Z" fill="#5A3310"/>
<path d="M161.722 211.863C162.396 212.85 162.632 214.045 162.345 215.204C162.059 216.362 161.273 217.389 160.194 218.041C159.115 218.692 157.839 218.908 156.681 218.621C155.522 218.335 154.575 217.57 154.016 216.513C154.016 216.513 154.016 216.513 154.016 216.513C153.533 215.619 153.108 214.719 152.724 213.829C146.314 197.996 146.702 180.713 152.478 165.7C152.801 164.865 153.135 164.051 153.493 163.225C153.655 162.855 153.967 162.558 154.348 162.396C154.73 162.234 155.151 162.219 155.529 162.359C155.907 162.5 156.216 162.785 156.4 163.157C156.583 163.529 156.626 163.958 156.507 164.344C156.254 165.163 156.026 165.966 155.809 166.785C151.906 181.42 153.723 197.49 160.54 209.983C160.921 210.649 161.323 211.296 161.722 211.863Z" fill="#5A3310"/>
<path d="M144 233.185C142.807 233.134 141.662 233.563 140.818 234.408C139.974 235.251 139.5 236.44 139.5 237.685C139.5 238.93 139.974 240.119 140.818 240.963C141.662 241.807 142.807 242.236 144 242.185C144 242.185 144 242.185 144 242.185C144.995 242.138 146.139 242.132 147.308 242.108C169.948 243.239 189.355 226.165 197.901 207.652C198.415 206.639 198.923 205.597 199.426 204.526C199.599 204.155 199.616 203.722 199.482 203.327C199.347 202.932 199.073 202.606 198.711 202.418C198.348 202.229 197.924 202.192 197.523 202.309C197.123 202.426 196.778 202.689 196.574 203.043C196.574 203.043 196.574 203.043 196.574 203.043C196.001 204.04 195.425 205.004 194.846 205.936C184.664 223.306 166.976 235.979 147.493 233.399C146.38 233.329 145.28 233.237 144 233.185Z" fill="#5A3310"/>
<path d="M113.027 258.473C114.734 259.206 116.05 260.58 116.665 262.333C117.282 264.083 117.148 266.068 116.312 267.812C115.476 269.555 114.011 270.902 112.261 271.517C110.509 272.134 108.614 271.968 106.973 271.096C106.973 271.096 106.973 271.096 106.973 271.096C105.145 270.135 103.395 269.092 101.712 268.01C72.4076 248.21 52.8773 217.709 45.2234 184.847C44.7992 183.016 44.419 181.208 44.0647 179.35C43.9465 178.724 44.0876 178.064 44.4422 177.52C44.7976 176.975 45.3374 176.591 45.9576 176.447C46.5778 176.303 47.2319 176.411 47.7907 176.743C48.3487 177.076 48.7657 177.605 48.9353 178.22C48.9353 178.22 48.9353 178.22 48.9353 178.22C49.4207 179.979 49.9298 181.685 50.4793 183.406C60.244 214.201 81.6552 241.271 108.611 256.347C110.093 257.137 111.595 257.869 113.027 258.473Z" fill="#5A3310"/>
<path d="M58.5119 209.863C57.8377 210.85 57.6017 212.045 57.8892 213.204C58.1748 214.362 58.9603 215.39 60.0398 216.041C61.1193 216.692 62.3947 216.908 63.5523 216.621C64.7118 216.335 65.6586 215.57 66.2176 214.513C66.2176 214.513 66.2176 214.513 66.2176 214.513C66.7004 213.619 67.1254 212.719 67.5099 211.829C73.9194 195.996 73.5315 178.713 67.7558 163.7C67.4329 162.865 67.0984 162.051 66.7405 161.225C66.5788 160.855 66.2668 160.558 65.8854 160.396C65.5033 160.234 65.083 160.219 64.7047 160.359C64.3264 160.5 64.0176 160.785 63.8339 161.157C63.6509 161.53 63.6081 161.958 63.7271 162.344C63.9795 163.163 64.2081 163.966 64.4246 164.785C68.3279 179.42 66.5109 195.49 59.694 207.983C59.3132 208.649 58.9107 209.296 58.5119 209.863Z" fill="#5A3310"/>
<path d="M87.9999 247.185C89.1934 247.134 90.338 247.563 91.1819 248.408C92.0258 249.251 92.4999 250.44 92.4999 251.685C92.4999 252.93 92.0258 254.12 91.1819 254.963C90.338 255.807 89.1934 256.237 87.9999 256.185C87.9999 256.185 87.9999 256.185 87.9999 256.185C87.0049 256.138 85.8612 256.132 84.6923 256.108C62.0524 257.24 42.645 240.165 34.099 221.652C33.5852 220.639 33.0768 219.597 32.5741 218.526C32.4012 218.155 32.3843 217.723 32.5181 217.327C32.6525 216.932 32.9267 216.606 33.2893 216.418C33.6518 216.229 34.0757 216.192 34.4767 216.309C34.8771 216.426 35.2218 216.689 35.4258 217.043C35.4258 217.043 35.4258 217.043 35.4258 217.043C35.9985 218.04 36.5746 219.004 37.1535 219.936C47.336 237.307 65.0235 249.979 84.5073 247.399C85.6198 247.329 86.7202 247.237 87.9999 247.185Z" fill="#5A3310"/>
</svg>
