<svg width="235" height="360" viewBox="0 0 235 360" fill="none" xmlns="http://www.w3.org/2000/svg">
<path d="M107.848 231.75C107.848 231.75 108.42 228.892 113.278 228.892C118.136 228.892 118.136 231.75 118.136 231.75L127.009 353.058C127.009 353.058 127.009 359.631 113.864 359.631C100.719 359.631 100.719 353.058 100.719 353.058L107.848 231.75Z" fill="#5A3310"/>
<path d="M113.123 290.738C111.391 291.419 110.053 292.748 109.438 294.501C108.821 296.25 108.977 298.281 109.838 300.076C110.699 301.872 112.185 303.264 113.935 303.878C115.688 304.496 117.561 304.285 119.177 303.361C119.177 303.361 119.177 303.361 119.177 303.361C120.307 302.735 121.36 302.072 122.365 301.391C139.616 289.063 150.375 270.896 154.297 251.672C154.513 250.602 154.702 249.547 154.877 248.463C154.973 247.852 154.812 247.207 154.454 246.676C154.095 246.145 153.57 245.771 152.967 245.631C152.365 245.491 151.728 245.595 151.172 245.914C150.618 246.234 150.189 246.742 150.006 247.333C150.006 247.333 150.006 247.333 150.006 247.333C149.7 248.318 149.382 249.271 149.041 250.231C143.008 267.388 130.368 282.124 115.466 289.729C114.662 290.117 113.856 290.469 113.123 290.738Z" fill="#5A3310"/>
<path d="M112.319 298.739C114.051 299.42 115.388 300.749 116.003 302.502C116.62 304.251 116.464 306.282 115.603 308.077C114.742 309.873 113.256 311.266 111.506 311.88C109.754 312.498 107.88 312.286 106.265 311.362C106.265 311.362 106.265 311.362 106.265 311.362C105.135 310.736 104.081 310.073 103.077 309.392C85.8255 297.064 75.0665 278.897 71.1444 259.674C70.9288 258.604 70.7391 257.548 70.5647 256.465C70.4688 255.853 70.6298 255.208 70.9871 254.677C71.3459 254.146 71.8717 253.772 72.474 253.632C73.0763 253.493 73.7129 253.597 74.269 253.916C74.8236 254.235 75.2522 254.743 75.4353 255.335C75.4353 255.335 75.4353 255.335 75.4353 255.335C75.7409 256.319 76.0594 257.272 76.4003 258.232C82.4333 275.389 95.0732 290.125 109.976 297.73C110.78 298.119 111.585 298.47 112.319 298.739Z" fill="#5A3310"/>
<path d="M148.775 265.963C144.96 266.092 141.97 269.232 142.096 272.976C142.223 276.721 145.418 279.652 149.233 279.523C155.155 279.323 161.552 272.319 161.552 272.319C161.552 272.319 154.696 265.763 148.775 265.963Z" fill="#F5B5DC"/>
<path d="M88.2027 270.851C86.6638 274.344 82.6368 275.952 79.2081 274.442C75.7795 272.931 74.2475 268.875 75.7865 265.381C78.1749 259.959 87.0557 256.627 87.0557 256.627C87.0557 256.627 90.5911 265.429 88.2027 270.851Z" fill="#F5B5DC"/>
<path d="M122.458 236.468C118.841 237.69 114.937 235.804 113.737 232.255C112.537 228.706 114.496 224.838 118.112 223.615C123.725 221.717 132.178 226.02 132.178 226.02C132.178 226.02 128.07 234.57 122.458 236.468Z" fill="#F5B5DC"/>
<path d="M118.797 222.825C119.982 226.454 118.057 230.339 114.496 231.503C110.935 232.667 107.086 230.669 105.9 227.04C104.06 221.409 108.448 213 108.448 213C108.448 213 116.956 217.194 118.797 222.825Z" fill="#F5B5DC"/>
</svg>
