<svg width="235" height="361" viewBox="0 0 235 361" fill="none" xmlns="http://www.w3.org/2000/svg">
<ellipse cx="86.5" cy="276.892" rx="37.5" ry="41" fill="#EF8D2A"/>
<ellipse cx="116.5" cy="246.392" rx="54.5" ry="62.5" fill="#EF8D2A"/>
<ellipse cx="149.5" cy="276.892" rx="37.5" ry="41" fill="#EF8D2A"/>
<path d="M110.861 232.404C110.861 232.404 111.433 229.546 116.291 229.546C121.149 229.546 121.149 232.404 121.149 232.404L130.021 353.712C130.021 353.712 130.021 360.284 116.876 360.284C103.731 360.284 103.731 353.712 103.731 353.712L110.861 232.404Z" fill="#5A3310"/>
<path d="M116.135 291.391C114.403 292.073 113.066 293.401 112.451 295.155C111.834 296.904 111.99 298.935 112.851 300.73C113.712 302.525 115.198 303.918 116.948 304.532C118.7 305.15 120.574 304.939 122.189 304.015C122.189 304.015 122.189 304.015 122.189 304.015C123.319 303.389 124.373 302.726 125.377 302.045C142.628 289.717 153.387 271.55 157.31 252.326C157.525 251.256 157.715 250.201 157.889 249.117C157.985 248.506 157.824 247.861 157.467 247.33C157.108 246.798 156.582 246.425 155.98 246.285C155.378 246.145 154.741 246.249 154.185 246.568C153.63 246.888 153.202 247.396 153.019 247.987C153.019 247.987 153.019 247.987 153.019 247.987C152.713 248.972 152.395 249.925 152.054 250.885C146.021 268.042 133.381 282.778 118.478 290.382C117.674 290.771 116.869 291.123 116.135 291.391Z" fill="#5A3310"/>
<path d="M115.331 299.393C117.063 300.074 118.401 301.403 119.016 303.156C119.633 304.905 119.477 306.936 118.616 308.731C117.755 310.527 116.269 311.919 114.519 312.533C112.766 313.151 110.893 312.94 109.277 312.016C109.277 312.016 109.277 312.016 109.277 312.016C108.147 311.39 107.094 310.727 106.089 310.046C88.8382 297.718 78.0792 279.551 74.157 260.327C73.9415 259.257 73.7518 258.202 73.5773 257.119C73.4814 256.507 73.6424 255.862 73.9998 255.331C74.3585 254.8 74.8844 254.426 75.4866 254.286C76.0889 254.146 76.7256 254.25 77.2817 254.57C77.8363 254.889 78.2649 255.397 78.448 255.989C78.448 255.989 78.448 255.989 78.448 255.989C78.7535 256.973 79.072 257.926 79.413 258.886C85.4459 276.043 98.0858 290.779 112.988 298.384C113.792 298.773 114.598 299.124 115.331 299.393Z" fill="#5A3310"/>
</svg>
