<svg width="235" height="360" viewBox="0 0 235 360" fill="none" xmlns="http://www.w3.org/2000/svg">
<path d="M89.6697 308.86C89.2295 305.41 89.7447 301.78 92.6782 299.911C96.4087 297.536 103.759 294.892 118 294.892C132.241 294.892 139.591 297.536 143.322 299.911C146.255 301.78 146.771 305.41 146.33 308.86L140.73 352.758C140.73 352.758 140.73 359.892 118 359.892C95.2703 359.892 95.2703 352.758 95.2703 352.758L89.6697 308.86Z" fill="#7D664F"/>
<ellipse cx="118.5" cy="304.892" rx="25.5" ry="8" fill="#33281E"/>
<ellipse cx="116.5" cy="217.392" rx="54.5" ry="62.5" fill="#33803C"/>
<ellipse cx="86.5" cy="247.892" rx="37.5" ry="41" fill="#33803C"/>
<ellipse cx="149.5" cy="247.892" rx="37.5" ry="41" fill="#33803C"/>
<path fill-rule="evenodd" clip-rule="evenodd" d="M116.291 200.546C121.149 200.546 121.148 203.404 121.148 203.404L128.535 304.385C128.687 306.463 127.219 308.32 125.145 308.525C122.732 308.763 120.164 308.892 117.5 308.892C114.228 308.892 111.099 308.697 108.225 308.344C106.218 308.098 104.813 306.297 104.931 304.278L110.861 203.404C110.861 203.404 111.433 200.546 116.291 200.546Z" fill="#5A3310"/>
<path d="M116.135 262.391C114.403 263.073 113.066 264.401 112.451 266.155C111.834 267.904 111.99 269.935 112.851 271.73C113.712 273.525 115.198 274.918 116.948 275.532C118.7 276.15 120.574 275.939 122.189 275.015C122.189 275.015 122.189 275.015 122.189 275.015C123.319 274.389 124.373 273.726 125.377 273.045C142.628 260.717 153.387 242.55 157.31 223.326C157.525 222.256 157.715 221.201 157.889 220.117C157.985 219.506 157.824 218.861 157.467 218.33C157.108 217.798 156.582 217.425 155.98 217.285C155.378 217.145 154.741 217.249 154.185 217.568C153.63 217.888 153.202 218.396 153.019 218.987C153.019 218.987 153.019 218.987 153.019 218.987C152.713 219.972 152.395 220.925 152.054 221.885C146.021 239.042 133.381 253.778 118.478 261.382C117.674 261.771 116.869 262.123 116.135 262.391Z" fill="#5A3310"/>
<path d="M115.331 270.393C117.063 271.074 118.401 272.403 119.016 274.156C119.633 275.905 119.477 277.936 118.616 279.731C117.755 281.527 116.269 282.92 114.519 283.533C112.766 284.151 110.893 283.94 109.277 283.016C109.277 283.016 109.277 283.016 109.277 283.016C108.147 282.39 107.094 281.727 106.09 281.046C88.8382 268.718 78.0793 250.551 74.1571 231.327C73.9416 230.257 73.7519 229.202 73.5774 228.119C73.4815 227.507 73.6425 226.862 73.9998 226.331C74.3586 225.8 74.8844 225.426 75.4867 225.286C76.089 225.146 76.7256 225.251 77.2817 225.57C77.8364 225.889 78.2649 226.397 78.448 226.989C78.448 226.989 78.448 226.989 78.448 226.989C78.7536 227.973 79.0721 228.926 79.4131 229.886C85.446 247.043 98.0859 261.779 112.988 269.384C113.792 269.773 114.598 270.124 115.331 270.393Z" fill="#5A3310"/>
<path d="M120.115 189.521C120.115 192.078 118.287 196.562 116.031 196.562C113.775 196.562 111.947 192.078 111.947 189.521C111.947 186.965 113.775 184.892 116.031 184.892C118.287 184.892 120.115 186.965 120.115 189.521Z" fill="#F5B5DC"/>
<path d="M125.707 196.324C123.884 198.035 119.21 199.648 117.387 197.938C115.564 196.227 117.283 191.84 119.106 190.129C120.929 188.418 123.884 188.418 125.707 190.129C127.53 191.84 127.53 194.614 125.707 196.324Z" fill="#F5B5DC"/>
<path d="M115.729 202.352C115.062 199.861 116.25 194.863 119.158 194.083C122.067 193.304 125.595 197.039 126.263 199.529C126.93 202.019 125.113 204.67 122.204 205.449C119.295 206.228 116.396 204.842 115.729 202.352Z" fill="#F5B5DC"/>
<path d="M117.27 202.352C117.937 199.861 116.749 194.863 113.841 194.083C110.932 193.304 107.404 197.039 106.736 199.529C106.069 202.019 107.886 204.67 110.795 205.449C113.704 206.228 116.603 204.842 117.27 202.352Z" fill="#F5B5DC"/>
<path d="M106.301 196.324C108.124 198.035 112.798 199.648 114.621 197.938C116.444 196.227 114.725 191.84 112.902 190.129C111.079 188.418 108.124 188.418 106.301 190.129C104.478 191.84 104.478 194.614 106.301 196.324Z" fill="#F5B5DC"/>
<path d="M160.115 234.521C160.115 237.078 158.287 241.562 156.031 241.562C153.775 241.562 151.947 237.078 151.947 234.521C151.947 231.965 153.775 229.892 156.031 229.892C158.287 229.892 160.115 231.965 160.115 234.521Z" fill="#F5B5DC"/>
<path d="M165.707 241.324C163.884 243.035 159.21 244.648 157.387 242.938C155.564 241.227 157.283 236.84 159.106 235.129C160.929 233.418 163.884 233.418 165.707 235.129C167.53 236.84 167.53 239.614 165.707 241.324Z" fill="#F5B5DC"/>
<path d="M155.729 247.352C155.062 244.861 156.25 239.863 159.158 239.083C162.067 238.304 165.595 242.039 166.263 244.529C166.93 247.019 165.113 249.67 162.204 250.449C159.295 251.228 156.396 249.842 155.729 247.352Z" fill="#F5B5DC"/>
<path d="M157.27 247.352C157.937 244.861 156.749 239.863 153.841 239.083C150.932 238.304 147.404 242.039 146.736 244.529C146.069 247.019 147.886 249.67 150.795 250.449C153.704 251.228 156.603 249.842 157.27 247.352Z" fill="#F5B5DC"/>
<path d="M146.301 241.324C148.124 243.035 152.798 244.648 154.621 242.938C156.444 241.227 154.725 236.84 152.902 235.129C151.079 233.418 148.124 233.418 146.301 235.129C144.478 236.84 144.478 239.614 146.301 241.324Z" fill="#F5B5DC"/>
<path d="M81.1153 228.521C81.1153 231.078 79.2867 235.562 77.0309 235.562C74.7752 235.562 72.9466 231.078 72.9466 228.521C72.9466 225.965 74.7752 223.892 77.0309 223.892C79.2867 223.892 81.1153 225.965 81.1153 228.521Z" fill="#F5B5DC"/>
<path d="M86.7071 235.324C84.8842 237.035 80.2096 238.648 78.3867 236.938C76.5638 235.227 78.2829 230.84 80.1058 229.129C81.9287 227.418 84.8842 227.418 86.7071 229.129C88.53 230.84 88.53 233.614 86.7071 235.324Z" fill="#F5B5DC"/>
<path d="M76.7289 241.352C76.0617 238.861 77.2496 233.863 80.1584 233.083C83.0672 232.304 86.5954 236.039 87.2626 238.529C87.9299 241.019 86.1127 243.67 83.2039 244.449C80.2951 245.228 77.3962 243.842 76.7289 241.352Z" fill="#F5B5DC"/>
<path d="M78.2701 241.352C78.9374 238.861 77.7494 233.863 74.8406 233.083C71.9318 232.304 68.4037 236.039 67.7364 238.529C67.0692 241.019 68.8864 243.67 71.7952 244.449C74.704 245.228 77.6029 243.842 78.2701 241.352Z" fill="#F5B5DC"/>
<path d="M67.3007 235.324C69.1236 237.035 73.7982 238.648 75.6211 236.938C77.444 235.227 75.7249 230.84 73.902 229.129C72.0791 227.418 69.1236 227.418 67.3007 229.129C65.4778 230.84 65.4778 233.614 67.3007 235.324Z" fill="#F5B5DC"/>
</svg>
