<?xml version="1.0" encoding="UTF-8"?><svg id="_레이어_2" xmlns="http://www.w3.org/2000/svg" viewBox="0 0 507.46 89.37"><defs><style>.cls-1{fill:#283353;}</style></defs><g id="_레이어_1-2"><path class="cls-1" d="M419.77,8.09c-7.56,22.66-21.55,44.57-22.99,69,10.41-.93,11.79-15.35,17.58-22.92,6-7.84,16.53-13.94,26.69-11.85,6.66,1.37,8.82,8.14,5.19,13.73-5.52,8.5-25.19,9.8-26.03,10.97s-.69,8.7-.22,10.36c1.59,5.55,8.85,3.68,12.77,2.2,11.32-4.28,27.01-24.8,23.02-37.48,9.03-.36,15.29-1.46,12.49,9.97,4.66-5.73,16.96-14.11,23.56-7.53,7.14,7.11-9.97,29.62-5.09,33.11,5.34,3.83,15.57-14.9,17.78-18.29,2.77-4.24,3.82-1.18,2.13,3.1-3.69,9.34-15.91,25.78-27.34,23.61-12.52-2.38,2.5-28.04,2.51-35.47,0-3.19-4.86-1.12-6.4-.37-7.49,3.64-11.44,12.36-14.39,19.61-1.43,3.51-3.53,14.66-6.74,15.26-2.78.52-6.56-.37-9.51-.02l1.51-9.99c-9.18,10.57-34.87,19.2-39,0-3.83,5.29-9.42,12.42-16.78,10.8-8.86-1.95-2.42-17.73-4.23-17.81-3.86,11.57-24.08,29.36-29,9.02-14.55,16.11-23.43,10.35-17.78-10.78,1.38-5.15,4.1-8.65,5.87-13.14.25-.65,1.07-1.85-.09-2.09-9.16-1.11-6.5,2.57-9.95,9.05-4.44,8.34-15.25,26.98-26.06,26.04-7.23-.63-5.31-10.13-5.5-15.09-4.78,4.58-7.73,11.65-14.44,14.04-15.65,5.57-14.01-13.77-10.31-23.3,4.42-11.36,14.73-22.3,28.03-19.51,2.14.45,5.88,3.59,6.24,3.59.51,0,2.87-3.07,5.2-3.61,2.64-.6,5.59-.06,8.29-.21-2.81,9.66-13.54,23.22-12,33.52.68,4.55,7.28-2.12,8.52-3.51,2.07-2.34,12.38-19.59,12.15-21.53-.12-1.02-2.68-2.63-3.25-4.44-1.4-4.4,1.87-8.31,6.24-8.71,6.72-.61,3.89,4.78,4.36,9.68,7.41.15,9.9-7.63,18.99-5-3.73,11.48-12.02,22.04-12,34.49.07.95,1.69.6,2.35.35,5.36-2.01,8.57-15.92,11.83-21.17,5.98-9.63,19.47-19.21,29.81-10.68,3.24-6.08,10.39-32.47,14.29-35.71,2.7-2.24,8.33-1,11.72-1.29ZM439.77,45.08c-8.66.03-13.97,10.4-18,16.99,9.25.72,19.69-7.05,18-16.99ZM304.5,46.26c-6.31,1.34-16.44,19.43-16.69,25.42-.3,7.26,4.97,5.82,8.95,1.89,2.32-2.29,13.12-18.57,13.8-21.24,1.14-4.48-1.49-7.04-6.06-6.07ZM392.77,46.09c-11.15-3.2-24.55,18.89-22.99,27.45,1.43,7.84,8.43-.2,10.82-3.12,2.25-2.75,14.24-22.38,12.17-24.32Z"/><path class="cls-1" d="M237.77,56.08c1.45-3.83,4.23-9.25,8.56-9.94,8.08-1.28,25.4-.1,33.96.93,1.17.14,1.99-.4,1.45,1.47-2.07,7.14-6.9,5.92-8.75,7.76-.48.47-3.45,9.83-5.03,12.47-14.12,23.56-65.54,32.09-70.2-2.69-5.76,5.85-11.38,4.79-17.97,1-2.81,7.01-11.86,17.72-19.58,18.93-9.44,1.48-15.21-3.3-12.93-12.92-8.06,14.37-31.04,21.65-25.51-3.01-2.42.46-8.09-.79-9.8.2-.33.19-1.86,3.63-2.79,4.71-4.02,4.69-9.62,10.1-16,10.99-29.69,4.13-19.23-36.93,2.62-44.38,11.18-3.82,21.32-.08,21.05,12.97-.09,4.26-5.49,13.87,2.2,12.34,8.27-1.65,8.19-22.56,17.44-24.62,2.93-.65,6.28-.01,9.28-.21-1.98,4.93-5.06,9.43-7.17,14.32-1.98,4.61-7.1,16.57-5.67,21.01,1.87,5.81,10.13-4.84,11.67-7.01,4.76-6.74,8.07-20.48,12.15-24.85,3.45-3.69,8.47-2.27,13.02-2.47-2.2,6.59-14.5,29.25-10.55,35.05,4.24,6.22,18.43-13.29,18.63-18.57.08-2.2-.98-4.07-.85-6.67.65-13.17,13.99-18.21,12.73-5.43-.51,5.22-7.08,12.99-4.03,17.19,2.18,3,4.81,2,7.4.26,6.4-4.31,4.45-11.12,6.14-17.86C205.11,23.6,227.24,1.23,252.22.04c11.87-.57,29.09,4.51,21.59,19.59-4.45,8.95-23.21,15.34-23.05,1.46,16.79,2.34,22.68-18.98,1.74-15.76-23.4,3.6-43.03,39.89-39.5,62.02,4.45,27.91,49.93,12.69,49.76-11.26h-25ZM104.52,45.28c-9.66,1.9-22.21,26.83-16.83,34.38,5.07,7.1,17.3-5.96,18.67-11.56.73-3-4.41-9.16-.08-14.99,1.28-1.72,4.52-2.31,4.54-4.5.03-3.24-3.95-3.79-6.31-3.32Z"/><path class="cls-1" d="M44.78,2.08c-1.61,21.21,11.04,39.36,16.49,59.02L81.26,3.07c1.79-2.16,10.41-.46,13.52-.97-12.47,22.84-25.6,49.99-30.76,75.73-.36,1.8.02,7.01-.23,7.27-.37.38-8.32-.28-10.01,0-1.36-21.09-14.5-39.66-19.49-60.02l-18.96,59.05c-1.4,1.99-8.9.54-11.55.95-.17-1.4.08-2.68.47-4.02,4.75-16.27,15.79-35.29,21.55-52.45,2.42-7.21,4.7-14.48,6-22-.18-3.96-30.14,6.33-27.02,15.49-9.83-3.99-2.46-12.84,4.33-16.18C20.34.38,32.69,2.42,44.78,2.08Z"/></g></svg>