<?xml version="1.0" encoding="UTF-8"?><svg id="_레이어_2" xmlns="http://www.w3.org/2000/svg" viewBox="0 0 124.01 115.02"><defs><style>.cls-1{fill:#899854;}</style></defs><g id="_레이어_1-2"><path class="cls-1" d="M60,61.53c-.15-.59-6.55-8.63-7.46-9.54-5.73-5.69-14.33-9.77-22.03-11.97l15.96,11.04,10.53,10.96c-23.19,9.31-40.32-9.59-44-30.98,21.77-6.18,41.73.95,49.51,22.99l3.49-4,3.02,29c3.8-3.59,6.08-8.94,10.48-12.01,9-6.26,22.76-4.57,32.47-.94-4.01,13.79-17.07,24.91-32.38,21.87l-7.57-2.91,10.32-7.18,12.67-5.82c-6.75-1.43-22.87,7.27-25.48,13.01-1.51,3.32,0,9.25-.51,12.98,10.28-3.13,18.34-3.15,27.32,3.18,2.31,1.62,4.12,4.51,6.4,5.6,5.76,2.77,17.45.65,21.28,7.72l-124.01.5c4.41-7.31,16.89-5.38,22.92-8.57,4.68-2.47,5.09-6.67,13.06-8.94,9.78-2.8,14.63.04,24.02,1.52v-37.5Z"/><path class="cls-1" d="M108,17.53c-2.2,18.56-20.59,34.11-39.52,31.5-1.15-.16-2,.43-1.45-1.46.94-3.26,9.07-15.13,11.55-18.45,3.07-4.1,7.31-7.96,10.42-12.07-5.2,1-11.18,7.87-14.51,11.98-2.57,3.17-9.69,16.43-10.51,17.01-2.62,1.85-3.88-4.87-4.03-6.44-1.71-18.64,13.32-33.29,30.39-37.7,2.54-.66,17.66-3.66,17.66-.34,0,4.94.55,11.32,0,16Z"/></g></svg>