<?xml version="1.0" encoding="UTF-8"?>
<svg id="_레이어_1" data-name="레이어_1" xmlns="http://www.w3.org/2000/svg" version="1.1" viewBox="0 0 1920 1080">
  <!-- Generator: Adobe Illustrator 29.8.4, SVG Export Plug-In . SVG Version: 2.1.1 Build 6)  -->
  <defs>
    <style>
      .st0 {
        fill: #ffc06e;
      }

      .st1 {
        fill: #eaece1;
      }

      .st2 {
        fill: #737373;
      }

      .st3 {
        fill: #a5ffa3;
      }

      .st4 {
        fill: #09b043;
      }
    </style>
  </defs>
  <polygon class="st1" points="706.7 638.3 961.3 844.5 1110.1 850 1398.9 572.2 1418.8 280.1 1035.2 288.9 706.7 638.3"/>
  <polygon id="vegetable_patch" class="st3" points="733.1 647.7 475.8 598.8 544.2 276.4 1012.1 296.4 998.5 370.3 733.1 647.7"/>
  <rect id="greenhouse" class="st4" x="830.8" y="590.1" width="102" height="53" transform="translate(694.3 -442.9) rotate(45)"/>
  <g>
    <rect class="st2" x="926.1" y="412.8" width="273.3" height="288" transform="translate(705 -588.4) rotate(45)"/>
    <rect id="garage" class="st2" x="1144.5" y="557.3" width="91" height="270" transform="translate(838.1 -638.7) rotate(45)"/>
  </g>
  <rect id="vinylhouse" class="st0" x="1334.9" y="327.8" width="101" height="178"/>
  <polygon id="front_yard" class="st4" points="997.2 371.4 1009 296.8 1198 294.5 1196.4 348.5 1149.1 377.7 1091.9 317.3 1048.9 313 997.2 371.4"/>
  <rect id="mailbox_area" class="st4" x="1315.7" y="284" width="120.2" height="47"/>
  <polygon id="greenhouse_area" class="st4" points="1325.3 612.6 1418.6 513.4 1434.5 515.6 1427.3 578.6 1359.3 644.4 1325.3 612.6"/>
  <polygon id="back_yard" class="st4" points="998.2 835.8 796.7 651.6 765.6 675.9 983.5 854.9 998.2 835.8"/>
</svg>